<?xml version="1.0" encoding="UTF-8" standalone="no"?>
<!DOCTYPE svg PUBLIC "-//W3C//DTD SVG 1.1//EN" "http://www.w3.org/Graphics/SVG/1.1/DTD/svg11.dtd">
<svg xmlns="http://www.w3.org/2000/svg" version="1.1" viewBox="0 0 1054 994" width="1054.0pt" height="994.0pt" xmlns:xlink="http://www.w3.org/1999/xlink">
<defs>
<path d="M 0.00 0.00 L 1054.00 0.00 L 1054.00 994.00 L 0.00 994.00 L 0.00 0.00 Z M 377.61 45.18 C 372.60 48.63 367.40 51.35 361.81 53.74 C 358.83 55.21 355.08 56.38 352.74 58.79 C 351.76 62.01 352.53 65.88 352.60 69.20 C 357.23 69.68 361.76 71.83 365.95 68.93 C 372.01 65.11 377.34 60.77 384.33 58.62 C 383.71 60.74 383.51 64.14 381.55 65.51 C 378.73 67.47 375.48 68.82 372.46 70.45 C 363.97 74.93 355.49 79.20 346.58 82.82 C 346.68 86.40 346.41 90.12 347.51 93.54 C 349.20 95.54 351.69 96.95 353.79 98.50 C 359.17 94.74 364.71 91.34 370.63 88.51 C 370.81 92.11 370.19 95.84 371.91 99.09 C 374.32 103.59 377.52 107.57 379.71 112.21 C 381.62 115.75 383.38 120.08 387.48 121.57 C 393.10 123.87 398.80 121.02 403.98 118.92 C 411.43 115.66 420.88 114.32 427.29 109.28 C 430.23 106.99 433.15 102.94 432.53 99.03 C 431.60 89.07 427.68 79.95 422.06 71.76 C 414.33 73.08 406.72 74.25 398.84 73.34 C 409.18 67.51 421.17 66.18 432.56 63.58 C 435.17 62.93 438.48 62.45 440.29 60.29 C 442.04 58.12 442.98 55.16 444.03 52.59 C 439.87 51.27 435.38 49.76 430.99 49.67 C 426.12 50.23 421.34 51.82 416.51 52.71 C 411.34 53.90 406.13 53.94 400.85 53.61 C 403.23 50.17 406.61 46.74 408.06 42.81 C 409.23 40.04 407.36 36.51 405.09 34.86 C 402.49 33.05 398.49 33.16 395.45 32.45 C 392.61 30.15 390.80 24.97 386.72 23.18 C 383.36 21.86 379.24 22.25 376.22 24.27 C 373.59 26.10 370.89 28.44 371.66 32.02 C 372.54 36.62 375.43 41.07 377.61 45.18 Z M 669.68 92.79 C 676.92 78.18 688.21 68.53 691.80 52.64 C 681.11 47.75 669.97 47.86 659.09 43.98 C 653.59 42.06 649.00 38.24 643.65 36.15 C 640.85 34.84 636.29 36.85 635.94 40.13 C 634.53 46.44 634.99 52.78 633.19 59.04 C 632.07 63.92 629.72 69.89 630.95 74.85 C 631.33 76.89 633.04 77.34 634.58 78.36 C 645.60 84.34 658.00 88.20 669.68 92.79 Z M 645.80 110.39 C 653.04 115.33 661.07 119.02 670.03 116.80 C 681.91 114.70 689.54 105.98 701.41 103.91 C 704.93 111.54 708.67 119.07 712.18 126.70 C 715.03 133.02 715.78 140.90 721.62 145.40 C 729.86 151.59 740.68 152.23 750.55 150.83 C 750.90 149.25 751.25 147.68 751.59 146.10 C 742.61 139.70 734.69 131.51 729.00 122.03 C 725.38 116.12 723.02 109.60 719.24 103.76 C 717.29 100.44 714.65 97.39 713.08 93.88 C 713.37 92.27 714.53 90.75 715.39 89.38 C 722.12 79.59 728.25 68.52 731.30 56.98 C 731.95 54.38 732.23 51.97 730.18 49.89 C 726.49 45.88 719.74 44.54 714.51 44.21 C 713.10 49.06 713.02 54.30 712.14 59.27 C 710.50 70.58 702.43 80.79 693.56 87.56 C 688.05 91.77 681.92 96.16 675.26 98.26 C 664.88 101.77 654.89 103.83 645.80 110.39 Z M 306.30 51.99 C 302.95 53.62 299.86 56.63 300.49 60.69 C 301.15 65.69 305.92 69.96 310.51 71.51 C 314.18 72.21 319.33 71.96 322.01 68.99 C 322.74 68.00 323.81 66.34 323.30 65.10 C 321.97 61.06 318.21 57.66 315.12 54.87 C 312.53 52.82 309.80 50.40 306.30 51.99 Z M 297.16 85.02 C 297.05 88.04 296.90 91.05 296.77 94.06 C 300.07 95.09 304.17 97.30 307.65 96.60 C 312.16 95.25 316.13 91.65 319.14 88.14 C 322.14 84.88 321.02 80.53 321.24 76.47 C 318.00 76.36 314.23 75.97 311.14 77.06 C 305.90 78.79 301.72 82.04 297.16 85.02 Z M 313.78 112.99 C 317.04 116.40 320.99 119.32 323.88 123.02 C 326.29 128.00 327.50 133.60 329.50 138.78 C 332.87 137.98 336.36 137.45 339.66 136.38 C 341.92 130.94 341.12 122.92 341.29 117.05 C 341.14 112.62 344.52 108.84 346.17 104.85 C 345.82 103.28 345.07 101.75 344.41 100.28 C 333.35 101.58 321.46 104.28 313.78 112.99 Z M 162.63 162.60 C 158.73 165.57 153.35 168.80 152.46 174.04 C 152.06 176.60 153.69 178.07 155.42 179.62 C 157.94 181.65 160.83 183.25 163.52 185.04 C 158.31 195.35 151.97 203.75 150.11 215.52 C 152.83 215.60 155.82 216.05 158.50 215.44 C 161.83 213.66 164.53 210.41 167.28 207.84 C 169.02 216.54 171.06 224.34 169.03 233.27 C 167.44 239.74 165.40 245.74 166.15 252.55 C 171.45 252.51 176.66 251.49 179.69 246.71 C 183.90 239.58 184.77 230.06 184.35 221.95 C 183.88 215.02 182.76 208.13 182.35 201.21 C 194.28 202.20 200.98 210.43 207.89 219.12 C 213.00 225.35 214.20 232.95 218.60 239.38 C 220.10 242.05 224.72 241.79 227.34 242.56 C 228.58 239.31 230.79 235.62 230.78 232.11 C 229.67 226.23 226.29 220.71 224.25 215.08 C 228.13 207.29 233.97 201.10 240.65 195.64 C 244.07 201.14 247.02 206.84 249.79 212.69 C 254.06 211.55 259.59 211.14 261.30 206.28 C 262.61 201.23 262.00 194.76 258.00 191.00 C 250.68 183.22 240.61 178.81 232.79 171.21 C 228.44 167.48 226.19 162.66 222.90 158.13 C 221.26 155.50 217.38 154.83 215.17 157.16 C 210.23 162.21 206.64 168.74 202.32 174.33 C 198.94 178.65 195.85 183.07 192.89 187.70 C 190.27 186.83 187.64 185.98 185.01 185.13 C 190.18 178.25 196.33 172.31 201.20 165.20 C 206.04 158.55 210.64 150.24 217.18 145.21 C 220.39 142.56 224.41 140.33 227.08 137.13 C 228.27 134.68 227.49 131.04 227.57 128.34 C 224.46 128.22 221.21 127.92 218.12 128.34 C 214.99 128.76 212.40 131.09 210.03 133.02 C 199.73 141.47 191.08 152.04 184.98 163.89 C 183.33 166.89 181.36 170.57 178.38 172.42 C 176.69 173.20 175.16 174.23 173.51 172.77 C 169.55 169.81 166.26 165.94 162.63 162.60 Z M 225.00 158.01 C 226.44 159.14 227.88 160.26 229.33 161.36 C 229.14 157.86 228.87 154.37 228.58 150.88 C 227.40 153.26 226.21 155.64 225.00 158.01 Z M 889.88 171.95 C 883.39 166.28 879.43 158.63 872.98 152.98 C 871.86 152.08 871.03 151.12 869.46 151.34 C 866.45 154.92 864.50 159.52 863.86 164.14 C 863.73 167.99 865.74 171.02 868.80 173.18 C 881.70 182.89 893.02 194.58 902.16 207.89 C 906.41 214.04 908.09 221.63 912.35 227.66 C 915.66 232.46 922.16 233.16 927.31 231.36 C 930.17 228.90 932.01 223.74 929.70 220.33 C 924.43 210.87 915.66 204.54 908.81 196.18 C 906.37 193.21 903.64 189.81 902.55 186.09 C 904.93 180.59 909.86 177.38 912.79 172.56 C 914.45 169.72 912.07 167.57 909.86 166.11 C 907.10 164.56 903.65 163.12 900.50 164.34 C 896.54 165.77 893.08 169.29 889.88 171.95 Z M 870.80 213.73 C 868.81 218.95 865.88 223.63 862.57 228.10 C 866.96 234.00 871.72 239.62 876.10 245.53 C 880.99 244.70 885.90 244.39 890.84 243.99 C 897.47 251.83 906.19 256.25 915.56 259.98 C 916.19 257.46 917.31 254.73 917.20 252.12 C 914.64 245.47 909.05 242.02 905.34 236.64 C 905.35 231.23 907.12 225.98 906.72 220.44 C 901.34 220.12 896.31 220.78 891.05 221.85 C 892.63 218.70 894.81 215.45 895.64 212.01 C 895.37 209.34 894.22 206.70 893.39 204.16 C 888.66 205.72 883.87 207.11 879.14 208.68 C 879.14 202.60 880.34 196.68 880.63 190.63 C 874.36 191.33 868.06 191.68 861.75 191.60 C 862.70 187.49 864.30 183.26 864.51 179.03 C 863.83 176.41 862.44 173.91 861.29 171.46 C 857.55 172.85 853.82 174.21 849.88 174.94 C 842.30 168.50 839.86 159.79 830.57 155.09 C 829.17 158.23 826.11 163.01 827.43 166.47 C 830.46 173.72 839.39 177.33 843.65 184.21 C 843.60 185.95 841.56 187.27 840.49 188.48 C 837.78 191.02 834.09 194.80 834.75 198.85 C 836.04 202.96 839.55 206.51 842.83 209.17 C 847.20 212.46 851.63 215.80 856.23 218.75 C 861.21 217.60 865.64 214.61 870.80 213.73 Z M 832.85 206.40 C 831.29 203.23 829.89 200.22 827.09 197.91 C 821.73 193.17 815.47 192.23 809.64 188.31 C 804.99 185.41 801.16 182.28 795.39 182.19 C 795.15 187.38 794.85 193.31 796.80 198.21 C 798.38 202.01 802.09 203.95 805.71 205.39 C 810.03 206.96 814.31 208.94 818.96 208.81 C 823.78 208.94 828.27 207.74 832.85 206.40 Z M 620.24 212.66 C 620.30 214.21 620.37 215.75 620.43 217.30 C 631.54 221.95 642.93 226.00 653.84 231.07 C 662.39 235.00 670.63 240.37 678.87 245.00 C 699.59 256.50 718.94 270.56 736.39 286.59 C 753.13 302.36 767.98 319.88 781.31 338.59 C 784.62 343.40 787.43 348.57 790.49 353.55 C 796.86 364.28 803.59 375.42 808.13 387.06 C 816.86 409.42 824.46 432.62 828.35 456.35 C 829.96 467.18 831.63 478.05 832.43 488.97 C 832.55 496.45 833.80 503.55 833.13 511.02 C 831.12 536.46 829.60 562.66 822.11 587.05 C 812.52 619.58 802.10 650.90 782.26 678.83 C 779.82 666.16 779.61 652.87 779.49 640.00 C 779.51 635.89 779.03 631.87 778.34 627.83 C 776.28 628.99 774.42 629.37 773.65 631.85 C 759.07 671.11 737.46 709.05 708.76 739.73 C 700.50 749.07 690.80 757.37 680.98 765.02 C 674.71 769.89 669.14 775.02 662.32 779.16 C 654.29 784.12 646.35 787.67 640.01 794.96 C 646.43 795.97 652.82 796.33 659.25 795.19 C 674.95 792.12 689.96 791.13 705.39 786.38 C 721.13 781.47 737.59 776.65 752.55 769.71 C 768.98 762.05 783.05 752.06 798.30 742.44 C 802.18 739.97 805.55 737.02 808.98 733.98 C 818.22 725.78 828.26 717.56 836.23 708.18 C 842.12 701.55 848.02 695.79 851.29 687.32 C 838.20 687.01 826.85 694.47 813.38 695.86 C 816.54 687.94 820.94 680.75 825.88 673.83 C 831.57 666.11 834.62 657.30 839.09 648.39 C 854.03 620.38 865.24 590.09 871.03 558.84 C 875.18 541.22 877.40 523.09 877.78 505.00 C 878.60 496.99 878.22 489.03 878.35 481.00 C 878.34 474.34 878.61 467.60 878.02 460.97 C 876.88 444.98 873.80 429.06 871.44 413.20 C 861.63 362.74 838.64 314.80 805.26 275.68 C 788.25 253.42 767.91 234.46 746.12 216.98 C 737.77 210.61 728.32 205.32 719.60 199.44 C 714.99 196.37 710.38 193.08 705.41 190.61 C 701.76 188.71 697.97 189.32 694.16 190.35 C 685.27 192.86 676.57 196.14 667.76 198.90 C 652.03 203.88 635.85 207.38 620.24 212.66 Z M 205.13 298.68 C 218.87 299.19 229.83 291.68 243.10 291.19 C 239.56 301.96 231.68 310.40 226.08 320.06 C 221.73 327.82 218.31 336.09 213.91 343.85 C 207.83 354.47 202.97 366.10 198.40 377.45 C 192.03 393.82 186.97 410.60 183.45 427.82 C 178.50 446.91 176.36 466.33 175.52 486.00 C 175.35 501.67 174.84 517.39 175.53 533.05 C 176.33 543.45 178.19 553.78 179.51 564.13 C 182.24 585.61 188.22 606.38 195.49 626.71 C 202.62 645.44 211.68 663.45 222.41 680.38 C 227.32 688.18 232.14 695.95 237.94 703.13 C 249.02 717.07 259.73 731.36 272.47 743.53 C 282.08 753.35 292.19 762.61 302.99 771.10 C 312.49 778.34 322.74 784.57 332.54 791.49 C 336.58 794.14 340.84 797.41 345.49 798.86 C 348.20 799.85 351.29 798.80 354.03 798.22 C 365.42 795.27 376.52 791.16 387.89 788.06 C 401.22 784.41 415.20 781.49 428.40 777.07 C 427.99 775.67 427.68 774.19 427.06 772.86 C 424.26 770.85 420.68 769.79 417.52 768.44 C 405.86 763.68 393.76 758.75 383.11 752.04 C 372.17 745.10 360.70 739.43 350.22 731.73 C 341.69 725.38 333.32 719.63 325.43 712.56 C 304.50 694.57 286.58 673.66 270.80 651.07 C 266.00 644.28 262.36 637.14 258.06 629.87 C 252.04 619.70 246.69 609.17 242.60 598.07 C 234.37 575.84 227.55 553.63 224.23 530.09 C 222.24 515.85 220.22 501.39 220.35 486.99 C 220.35 479.56 220.15 472.38 221.24 465.01 C 223.39 444.33 225.28 424.49 231.24 404.43 C 238.90 379.03 247.90 353.02 260.63 329.66 C 264.90 322.31 268.56 315.14 274.29 308.80 C 278.14 325.56 275.27 342.39 277.13 358.63 C 278.32 358.57 279.52 358.50 280.71 358.44 C 282.36 354.58 284.08 350.76 285.58 346.84 C 292.08 330.51 300.44 315.24 309.25 300.07 C 321.85 279.43 336.97 260.17 354.37 243.36 C 362.68 234.83 372.04 227.78 381.38 220.43 C 385.72 217.04 389.82 213.61 394.63 210.86 C 403.06 205.96 411.33 202.32 418.07 195.01 C 412.29 193.79 406.58 193.09 400.70 194.18 C 390.89 195.95 380.99 197.02 371.13 198.51 C 358.73 200.34 346.32 204.41 334.32 208.14 C 319.68 212.53 305.54 217.64 292.14 225.08 C 279.44 232.12 267.11 239.91 255.04 247.97 C 244.43 256.60 233.61 265.24 224.04 275.03 C 217.15 282.70 209.95 289.40 205.13 298.68 Z M 807.96 222.44 C 809.15 228.16 811.14 233.79 817.03 236.10 C 823.83 238.25 831.30 238.60 838.35 239.65 C 838.48 247.51 838.13 255.53 842.62 262.41 C 844.08 265.01 847.96 265.50 850.56 264.75 C 855.70 260.49 856.88 254.37 856.61 247.98 C 856.88 239.43 853.23 232.22 848.78 225.19 C 847.05 222.24 844.51 220.74 841.08 220.79 C 836.06 221.21 831.01 222.62 826.05 222.52 C 820.00 222.45 814.01 221.92 807.96 222.44 Z M 483.78 239.31 C 437.99 246.48 394.56 266.36 358.85 295.84 C 334.39 315.99 313.78 340.49 298.04 367.98 C 277.87 402.80 266.34 442.69 263.92 482.81 C 262.10 514.96 266.15 547.31 275.97 577.98 C 295.15 638.70 337.44 691.44 392.30 723.70 C 423.64 742.47 458.94 754.11 495.18 758.37 C 511.21 760.14 528.07 761.05 544.08 758.92 C 550.74 758.58 557.37 758.51 563.97 757.44 C 619.72 749.39 672.86 722.56 712.07 682.07 C 727.63 666.67 740.88 648.77 752.05 629.97 C 771.80 596.42 783.55 558.08 786.88 519.33 C 787.72 512.29 787.55 505.09 787.65 498.00 C 787.55 489.86 787.72 481.81 786.63 473.89 C 783.37 439.86 773.58 406.54 757.71 376.25 C 750.12 361.57 740.47 347.65 730.47 334.51 C 718.10 319.13 703.89 304.90 688.44 292.60 C 677.54 284.28 666.18 276.50 654.28 269.67 C 618.33 249.09 577.42 237.50 536.01 236.21 C 529.30 235.51 522.72 235.88 516.00 236.25 C 505.17 236.19 494.42 237.30 483.78 239.31 Z M 884.67 289.97 C 881.71 276.19 876.42 263.27 874.19 249.61 C 871.10 249.58 867.64 248.99 864.64 249.79 C 861.31 251.82 858.97 254.86 859.21 258.94 C 859.47 265.26 858.88 272.23 862.22 277.78 C 866.80 285.74 875.62 290.03 884.67 289.97 Z M 112.47 351.74 C 106.86 351.26 101.54 350.68 95.99 352.10 C 90.58 353.38 85.08 351.99 79.75 352.68 C 77.68 356.53 76.21 360.71 74.35 364.67 C 70.56 363.71 66.76 362.81 62.97 361.89 C 63.44 359.74 63.93 357.59 64.44 355.45 C 69.53 353.06 75.23 351.13 79.82 347.86 C 85.00 343.58 87.03 337.17 88.56 330.88 C 86.21 330.33 83.67 329.26 81.24 329.37 C 77.78 330.18 74.91 333.27 71.52 334.38 C 68.34 335.04 64.62 334.48 61.53 335.52 C 59.76 336.17 58.67 338.44 57.92 340.05 C 55.75 345.22 54.60 350.87 52.94 356.22 C 50.32 365.53 46.35 374.52 42.00 383.13 C 41.36 384.54 40.43 386.12 40.35 387.69 C 42.79 391.47 46.55 394.58 47.55 399.15 C 48.89 404.89 48.47 410.86 49.56 416.68 C 52.09 416.64 54.62 416.63 57.15 416.65 C 59.32 410.49 62.24 404.71 61.27 397.96 C 60.19 391.05 58.13 384.33 57.15 377.38 C 62.46 377.33 67.75 377.48 73.05 377.68 C 71.64 385.04 69.16 392.08 67.29 399.31 C 66.70 401.83 66.06 405.79 68.88 407.22 C 76.10 410.80 85.23 408.66 92.59 413.48 C 106.04 422.12 112.36 436.02 117.48 450.55 C 120.30 450.47 123.12 450.40 125.94 450.39 C 126.92 446.26 128.58 441.96 127.25 437.72 C 122.46 423.18 112.81 412.76 101.62 402.79 C 105.46 399.71 110.24 397.14 112.24 392.41 C 116.01 384.01 117.10 374.55 119.54 365.73 C 121.92 357.29 124.71 349.00 128.66 341.14 C 135.46 343.92 140.85 348.31 146.13 353.30 C 141.63 354.32 137.12 355.21 132.56 355.88 C 131.39 362.09 128.89 367.89 127.54 374.03 C 126.68 378.02 128.86 381.72 132.13 383.87 C 136.82 386.70 142.79 387.25 147.72 384.65 C 149.40 383.70 150.90 382.31 152.38 381.09 C 149.68 377.35 147.12 373.54 144.28 369.90 C 147.80 367.52 153.48 365.46 154.65 361.00 C 156.25 356.35 157.45 351.61 159.35 347.06 C 152.43 338.24 143.32 331.43 133.04 327.03 C 128.26 325.29 122.21 325.49 119.44 330.45 C 115.95 336.93 114.82 344.77 112.47 351.74 Z M 897.32 357.68 C 901.05 359.91 904.79 362.13 908.57 364.28 C 907.01 371.16 905.30 377.86 905.06 384.95 C 907.43 386.51 909.81 388.49 912.49 389.48 C 915.49 390.22 918.88 389.76 921.90 389.36 C 932.23 387.55 941.49 382.70 951.90 380.76 C 961.26 378.89 969.87 375.14 978.38 370.92 C 978.43 367.52 978.47 364.12 978.56 360.72 C 981.22 362.41 983.95 364.80 987.01 365.61 C 989.72 365.11 992.15 362.67 994.34 361.08 C 992.05 356.92 989.01 352.54 987.95 347.88 C 987.64 344.08 988.91 340.15 988.58 336.34 C 987.72 333.58 985.37 331.17 983.72 328.84 C 976.34 331.78 969.02 335.15 961.48 337.60 C 955.10 339.67 948.82 340.61 942.29 342.15 C 932.42 344.44 922.54 346.60 912.47 347.86 C 905.94 348.81 901.05 352.35 897.32 357.68 Z M 962.98 409.90 C 958.05 412.28 954.57 416.16 950.36 419.48 C 947.60 419.56 944.69 417.84 942.12 416.96 C 946.63 413.19 952.24 410.53 956.31 406.34 C 960.35 402.23 957.54 393.85 951.98 392.78 C 950.27 392.93 948.57 393.40 946.90 393.78 C 936.51 396.40 924.90 396.46 914.32 398.21 C 911.37 398.79 908.59 399.09 906.43 401.42 C 904.14 403.39 903.51 407.24 905.29 409.71 C 911.14 418.19 918.78 425.19 928.64 428.63 C 927.43 424.16 926.01 419.76 924.66 415.33 C 928.05 415.35 931.43 415.37 934.82 415.39 C 936.49 421.10 938.41 426.68 940.69 432.17 C 936.29 437.94 930.35 444.49 928.82 451.71 C 926.97 461.35 929.90 470.81 935.17 478.87 C 937.82 482.73 941.72 483.81 945.91 485.24 C 944.62 475.07 940.81 466.74 942.82 456.11 C 944.16 450.92 947.81 447.14 951.14 443.13 C 952.34 441.80 953.50 440.23 954.99 439.20 C 958.64 438.97 962.44 439.30 966.03 439.95 C 971.02 440.82 975.09 443.75 980.06 444.66 C 988.54 446.28 997.37 446.69 1006.00 446.61 C 1010.61 446.73 1014.70 442.79 1017.42 439.46 C 1019.89 436.69 1019.61 433.42 1019.40 429.96 C 1018.68 423.67 1015.98 417.53 1014.37 411.39 C 1013.16 406.76 1010.53 402.65 1009.80 398.00 C 1010.02 394.30 1012.14 390.26 1011.39 386.64 C 1008.79 383.89 1005.38 384.33 1001.98 384.87 C 991.52 386.90 980.62 388.70 970.76 392.79 C 967.43 394.14 963.57 396.78 962.27 400.27 C 961.93 403.42 962.73 406.74 962.98 409.90 Z M 131.24 432.94 C 132.93 429.45 134.38 426.00 134.54 422.06 C 134.91 416.63 133.41 411.64 131.38 406.69 C 135.16 406.43 139.41 406.21 143.00 404.90 C 145.54 403.99 147.31 401.86 149.18 400.03 C 143.89 395.95 138.00 390.28 131.08 389.60 C 126.85 391.32 126.54 395.50 125.26 399.30 C 124.26 403.12 121.84 405.68 119.93 408.99 C 118.69 411.07 119.13 413.80 120.20 415.86 C 123.28 422.01 126.34 427.98 131.24 432.94 Z M 64.44 516.79 C 62.97 526.27 63.92 535.51 64.83 544.97 C 66.01 554.84 63.29 564.62 58.93 573.41 C 52.88 563.30 52.60 552.46 48.10 541.73 C 44.92 541.38 41.75 540.92 38.59 540.44 C 37.82 543.73 36.54 547.30 37.40 550.66 C 39.70 559.13 43.86 567.87 44.68 576.64 C 42.67 579.44 38.80 581.23 37.14 584.27 C 36.12 587.27 37.18 591.08 37.37 594.22 C 41.82 595.01 47.36 595.25 51.24 597.73 C 56.52 603.65 55.77 614.64 59.37 621.53 C 61.15 624.24 65.65 625.01 68.55 626.05 C 70.18 622.79 71.71 619.79 71.46 616.01 C 71.12 610.30 69.19 604.71 68.43 599.03 C 75.31 601.90 81.81 604.44 87.19 609.80 C 91.45 614.04 95.65 618.12 101.08 620.87 C 103.27 616.76 105.74 612.33 105.25 607.50 C 104.86 604.16 102.40 602.09 100.14 599.85 C 91.82 592.20 81.36 588.96 72.03 581.85 C 72.12 575.50 74.54 570.00 75.61 563.84 C 77.08 556.90 76.81 550.08 76.86 543.00 C 76.82 539.34 76.97 535.58 76.43 531.96 C 75.74 528.40 74.09 525.00 71.82 522.18 C 69.95 519.84 66.98 518.31 64.44 516.79 Z M 974.63 584.16 C 972.13 586.44 968.64 588.76 967.16 591.87 C 964.89 597.12 965.44 603.42 965.32 609.04 C 965.36 612.65 964.75 616.14 964.29 619.71 C 961.28 619.27 958.56 619.00 956.31 616.71 C 953.71 614.29 953.90 611.32 953.72 608.05 C 953.34 598.70 956.64 589.23 955.62 580.14 C 955.24 576.61 953.78 573.63 952.21 570.51 C 948.05 572.78 944.30 575.29 941.01 578.73 C 936.10 577.89 930.12 576.45 925.22 577.88 C 923.54 579.10 922.21 580.67 922.72 582.88 C 923.93 586.05 927.20 588.63 929.55 591.00 C 926.60 592.42 923.63 593.78 920.65 595.11 C 920.97 597.80 919.34 602.31 922.42 603.58 C 925.64 605.57 929.14 607.12 932.48 608.91 C 930.16 612.17 927.95 615.49 925.82 618.88 C 927.25 621.18 928.61 623.51 929.91 625.89 C 934.45 625.62 938.91 625.16 943.41 624.53 C 943.80 627.59 944.29 630.64 944.64 633.70 C 936.78 635.12 929.27 633.82 921.59 632.15 C 921.05 627.42 920.56 622.68 919.84 617.97 C 914.34 620.13 908.92 622.70 906.69 628.60 C 905.91 632.32 905.82 636.43 908.49 639.45 C 910.73 642.29 913.86 643.49 917.33 644.08 C 929.76 646.18 941.63 649.37 954.22 650.68 C 955.31 644.21 955.40 637.79 955.01 631.25 C 962.79 634.30 969.57 637.94 977.77 639.03 C 978.46 636.05 979.03 633.04 979.61 630.03 C 984.42 630.29 989.10 630.22 993.87 629.60 C 993.77 621.24 992.85 612.96 994.47 604.75 C 998.49 609.18 1002.38 613.69 1006.91 617.63 C 1008.39 615.72 1010.56 613.84 1011.42 611.57 C 1012.39 605.05 1007.06 599.16 1003.36 594.39 C 1008.53 593.68 1013.09 592.37 1017.89 590.32 C 1015.29 584.67 1011.10 580.52 1006.92 576.06 C 1000.97 569.84 999.27 560.66 993.86 554.11 C 992.55 552.52 991.02 551.04 989.57 549.55 C 987.33 551.56 984.79 553.65 983.29 556.29 C 980.76 560.47 979.39 564.84 977.52 569.32 C 970.25 562.97 964.79 555.10 960.31 546.61 C 957.37 540.95 956.55 534.13 954.83 528.05 C 953.95 523.32 948.21 519.71 943.74 519.28 C 940.60 526.36 939.87 535.94 944.31 542.65 C 952.84 557.41 963.50 571.28 974.63 584.16 Z M 93.77 590.72 C 96.81 590.74 99.89 590.56 102.93 590.79 C 105.96 593.22 106.69 598.67 110.20 600.92 C 113.35 600.75 116.28 598.52 118.90 596.91 C 124.14 593.40 129.67 590.39 134.96 586.97 C 136.28 586.03 137.96 585.08 138.82 583.67 C 138.98 581.19 137.66 578.58 136.76 576.31 C 132.10 565.63 130.12 553.57 126.10 542.79 C 125.20 539.61 121.30 537.91 118.32 539.22 C 113.99 540.55 112.36 544.50 108.92 546.97 C 104.69 549.38 98.09 549.01 94.09 552.08 C 92.20 553.50 91.85 555.71 91.57 557.91 C 90.43 569.13 94.45 579.42 93.77 590.72 Z M 923.39 549.28 C 921.04 557.97 926.99 566.82 934.31 570.97 C 938.58 572.67 942.80 569.38 943.34 565.02 C 940.64 556.55 932.13 550.18 923.39 549.28 Z M 107.31 627.86 C 108.64 631.97 110.24 635.95 112.33 639.74 C 116.08 646.40 118.93 653.11 124.31 658.71 C 128.21 653.72 132.06 648.95 137.28 645.26 C 141.34 642.56 143.79 637.86 143.36 632.97 C 142.98 630.58 141.41 628.26 140.22 626.19 C 136.37 627.56 132.15 629.97 128.02 630.11 C 124.19 629.67 120.53 628.05 116.68 627.54 C 113.49 627.09 110.47 627.47 107.31 627.86 Z M 70.03 669.96 C 75.68 667.64 80.68 664.74 83.13 658.84 C 84.72 653.42 84.88 647.33 83.17 641.92 C 82.25 639.01 80.24 636.52 77.49 635.17 C 74.64 638.84 72.44 643.03 70.05 647.00 C 68.04 650.58 66.05 653.73 66.10 658.01 C 65.88 662.57 67.86 666.14 70.03 669.96 Z M 94.67 635.03 C 93.13 635.25 91.54 635.48 90.06 635.97 C 86.25 645.51 88.79 658.86 97.20 665.26 C 102.82 666.55 107.88 660.82 106.61 655.32 C 104.90 647.92 99.02 641.12 94.67 635.03 Z M 169.05 702.74 C 170.32 718.65 170.56 734.12 178.08 748.50 C 181.06 746.83 185.54 745.41 187.34 742.36 C 190.32 737.06 190.22 730.40 188.26 724.77 C 186.36 719.16 183.40 713.81 180.01 708.96 C 177.34 705.22 173.09 704.44 169.05 702.74 Z M 143.55 716.01 C 145.65 727.81 152.48 737.74 155.72 748.91 C 154.46 751.30 151.92 753.14 149.93 754.91 C 146.63 757.52 143.58 760.28 140.60 763.24 C 143.17 766.22 145.24 771.37 149.98 770.72 C 155.32 770.23 159.98 764.61 164.46 761.85 C 165.88 764.08 167.29 766.31 168.70 768.55 C 162.10 771.60 155.35 774.04 149.15 777.92 C 152.23 783.46 156.75 787.35 161.36 791.54 C 157.54 790.82 152.41 790.37 149.50 787.53 C 144.56 782.93 141.48 776.46 138.22 770.73 C 136.66 767.42 132.71 767.07 129.66 765.86 C 128.41 770.40 126.55 775.26 126.48 779.98 C 129.08 785.66 134.80 790.19 139.00 794.76 C 136.05 797.62 131.95 800.30 129.97 803.91 C 130.99 806.51 132.49 809.08 134.20 811.28 C 138.02 812.50 142.39 811.43 146.08 810.18 C 148.07 809.75 149.91 808.46 151.49 810.46 C 157.07 816.45 162.51 822.60 168.09 828.60 C 170.11 826.17 175.34 822.61 174.44 819.10 C 170.80 811.36 164.81 804.51 159.20 798.10 C 162.80 798.67 165.82 800.36 169.26 798.28 C 174.52 795.44 179.58 792.34 185.22 790.23 C 185.28 791.93 185.35 793.63 185.40 795.33 C 182.54 796.64 179.22 797.77 176.79 799.80 C 173.39 802.66 173.64 808.40 176.30 811.68 C 177.54 813.29 179.55 815.76 181.76 815.75 C 186.50 812.17 190.83 808.08 195.77 804.71 C 202.63 811.22 211.29 819.61 221.09 820.73 C 227.61 821.64 232.12 813.18 227.62 808.34 C 220.60 801.67 211.61 797.03 204.03 790.97 C 197.11 785.58 192.17 779.12 186.00 773.00 C 183.79 770.76 181.61 768.78 179.98 766.04 C 175.17 757.99 175.23 749.01 169.78 741.22 C 165.03 734.66 160.44 726.99 154.32 721.67 C 151.20 718.88 147.49 717.28 143.55 716.01 Z M 843.70 738.42 C 842.89 741.53 841.74 744.76 841.58 747.99 C 841.88 752.40 844.32 756.65 844.73 761.03 C 844.93 762.73 844.13 763.97 843.39 765.42 C 840.26 771.09 836.48 776.57 833.05 782.02 C 828.88 780.00 824.95 777.62 820.98 775.25 C 821.97 771.80 822.97 768.36 823.96 764.91 C 818.02 764.77 811.07 763.45 805.80 766.82 C 802.98 768.67 799.93 771.17 800.11 774.90 C 800.07 777.93 801.84 780.12 804.05 781.98 C 808.11 785.25 813.41 786.61 817.93 789.03 C 820.68 790.50 822.79 792.84 824.93 795.06 C 830.21 800.75 835.28 806.75 840.86 812.15 C 843.72 814.71 846.72 817.18 850.82 816.76 C 852.64 816.78 853.27 815.54 854.31 814.31 C 859.65 807.15 864.35 798.93 870.27 792.27 C 874.77 786.94 880.68 783.32 885.55 778.24 C 885.42 776.82 885.29 775.41 885.15 773.99 C 878.34 769.01 871.29 765.65 865.22 759.77 C 858.59 753.42 855.33 745.79 850.72 738.12 C 848.37 738.10 846.05 738.27 843.70 738.42 Z M 197.36 764.08 C 196.69 768.16 196.17 772.26 195.53 776.34 C 199.87 777.53 204.24 778.62 208.64 779.58 C 209.36 782.89 209.50 786.82 211.11 789.81 C 212.42 792.45 215.56 791.67 217.98 791.92 C 228.96 791.92 239.34 794.43 249.94 796.94 C 247.53 791.77 245.55 786.73 241.08 782.93 C 236.16 778.84 229.44 776.35 223.04 776.33 C 219.24 776.24 215.58 776.59 211.73 776.75 C 214.41 771.17 219.09 765.00 217.43 758.54 C 215.55 756.11 211.52 755.34 208.74 754.28 C 208.20 749.44 207.05 744.75 206.14 739.97 C 200.32 739.74 194.57 741.29 190.00 744.97 C 186.81 747.67 184.29 752.11 185.67 756.36 C 188.15 760.63 193.13 762.17 197.36 764.08 Z M 851.81 823.72 C 854.56 827.67 857.08 831.66 858.78 836.19 C 853.87 842.49 847.23 843.57 840.01 845.68 C 840.62 852.03 843.26 858.65 850.03 860.40 C 852.93 859.32 855.43 856.76 857.61 854.62 C 860.74 851.31 863.89 848.05 867.14 844.87 C 869.73 848.75 872.20 852.71 874.74 856.62 C 879.26 855.11 883.52 853.38 886.99 850.00 C 893.24 844.41 896.83 837.44 902.21 831.21 C 910.86 821.30 920.56 811.91 928.33 801.31 C 931.35 797.46 931.19 792.84 931.51 788.19 C 926.14 789.27 920.92 789.82 916.79 793.77 C 903.37 805.91 895.94 822.82 884.33 836.35 C 882.87 834.45 881.38 832.59 879.83 830.77 C 890.09 812.81 907.83 797.50 917.10 778.12 C 919.22 774.08 917.89 770.53 917.45 766.29 C 911.65 767.59 907.53 769.39 902.97 773.26 C 899.91 769.63 896.69 766.22 892.70 763.60 C 891.23 767.81 890.03 772.07 888.17 776.14 C 882.73 788.36 874.36 799.61 865.94 809.93 C 861.28 814.69 855.73 818.16 851.81 823.72 Z M 301.28 848.81 C 302.14 851.28 302.69 854.52 304.49 856.49 C 309.01 861.34 314.83 865.07 318.68 870.33 C 320.47 872.67 321.78 875.28 322.84 878.00 C 326.59 887.82 329.92 897.80 332.69 907.94 C 327.83 913.93 321.87 921.24 320.54 929.01 C 320.19 932.86 319.83 938.25 322.68 941.29 C 327.26 945.32 336.56 943.15 337.78 936.75 C 340.01 929.21 339.94 920.75 345.60 914.65 C 350.80 909.46 357.32 905.39 363.62 901.66 C 373.21 895.80 384.14 894.15 393.81 888.23 C 391.73 885.63 390.12 880.97 386.09 881.44 C 372.97 880.54 359.55 888.75 347.03 892.51 C 342.60 882.37 338.01 871.41 331.69 862.30 C 327.07 855.67 321.15 849.44 313.88 845.72 C 308.99 844.04 305.44 846.79 301.28 848.81 Z M 736.11 885.38 C 731.48 886.26 725.83 886.38 721.68 888.68 C 718.40 890.51 715.95 893.96 716.93 897.86 C 718.00 902.79 721.85 906.32 724.84 910.15 C 733.36 920.98 736.55 933.28 745.75 943.14 C 751.68 937.94 757.82 932.84 764.26 928.30 C 765.38 927.37 767.08 926.38 767.52 924.94 C 768.03 921.98 766.57 919.24 765.26 916.70 C 760.02 907.36 754.18 899.39 750.92 889.01 C 747.11 877.16 742.49 864.95 741.03 852.54 C 738.17 852.67 733.60 852.33 731.49 854.58 C 728.61 858.22 728.66 864.03 729.82 868.30 C 731.53 874.13 734.43 879.52 736.11 885.38 Z M 674.02 869.71 C 674.83 871.14 675.38 873.45 677.09 873.96 C 680.41 875.25 683.95 875.99 687.40 876.85 C 687.64 883.61 686.72 890.47 687.46 897.18 C 687.97 900.36 688.55 903.32 692.12 904.20 C 695.52 904.83 699.55 902.44 702.77 901.41 C 702.74 892.62 702.26 883.78 702.51 874.99 C 702.61 870.55 703.81 866.41 703.65 861.94 C 703.57 858.84 702.74 856.10 702.12 853.08 C 690.79 854.84 682.46 862.59 674.02 869.71 Z M 668.38 895.72 C 659.54 892.77 650.03 886.27 640.51 888.64 C 628.41 893.03 617.69 901.64 608.07 909.93 C 608.73 911.50 609.40 913.06 610.06 914.63 C 620.32 911.88 631.20 908.31 641.97 908.43 C 646.61 908.44 650.92 908.36 655.38 909.79 C 659.89 911.68 661.19 918.83 665.14 921.11 C 668.36 921.75 671.78 921.54 675.06 921.69 C 669.90 925.06 663.54 927.93 659.38 932.49 C 657.78 935.23 658.86 939.72 659.42 942.70 C 661.47 950.70 663.85 959.60 668.52 966.50 C 670.07 968.83 672.34 970.27 675.15 970.41 C 678.74 970.55 682.41 969.68 685.88 968.84 C 694.62 966.58 700.53 960.02 708.99 956.98 C 712.91 955.56 716.83 954.16 720.64 952.47 C 717.51 943.98 713.82 935.74 710.61 927.28 C 709.41 924.54 708.24 921.09 705.98 919.04 C 701.83 916.20 696.12 916.15 692.39 912.63 C 689.27 909.73 686.18 906.68 683.54 903.34 C 681.84 901.47 682.50 899.33 682.60 897.04 C 683.23 892.52 683.70 888.05 683.71 883.47 C 681.39 883.42 677.64 881.63 676.12 884.05 C 673.39 887.83 671.08 891.91 668.38 895.72 Z M 382.34 946.85 C 387.04 948.94 390.60 952.64 394.99 954.98 C 397.01 956.09 399.36 955.55 401.06 954.09 C 404.33 951.28 406.49 947.10 407.23 942.88 C 408.14 935.94 406.60 930.05 406.68 923.00 C 406.76 920.30 405.67 918.12 403.47 916.59 C 400.03 914.56 396.08 913.33 392.39 911.81 C 387.72 910.18 381.58 907.20 376.62 908.66 C 372.23 910.67 369.78 916.32 367.13 920.14 C 364.85 923.88 361.06 927.92 360.34 932.30 C 359.69 936.49 362.73 939.23 366.10 941.03 C 371.26 943.53 377.10 944.46 382.34 946.85 Z" id="p0" />
<path d="M 386.72 23.18 C 390.80 24.97 392.61 30.15 395.45 32.45 C 398.49 33.16 402.49 33.05 405.09 34.86 C 407.36 36.51 409.23 40.04 408.06 42.81 C 406.61 46.74 403.23 50.17 400.85 53.61 C 406.13 53.94 411.34 53.90 416.51 52.71 C 421.34 51.82 426.12 50.23 430.99 49.67 C 435.38 49.76 439.87 51.27 444.03 52.59 C 442.98 55.16 442.04 58.12 440.29 60.29 C 438.48 62.45 435.17 62.93 432.56 63.58 C 421.17 66.18 409.18 67.51 398.84 73.34 C 406.72 74.25 414.33 73.08 422.06 71.76 C 427.68 79.95 431.60 89.07 432.53 99.03 C 433.15 102.94 430.23 106.99 427.29 109.28 C 420.88 114.32 411.43 115.66 403.98 118.92 C 398.80 121.02 393.10 123.87 387.48 121.57 C 383.38 120.08 381.62 115.75 379.71 112.21 C 377.52 107.57 374.32 103.59 371.91 99.09 C 370.19 95.84 370.81 92.11 370.63 88.51 C 364.71 91.34 359.17 94.74 353.79 98.50 C 351.69 96.95 349.20 95.54 347.51 93.54 C 346.41 90.12 346.68 86.40 346.58 82.82 C 355.49 79.20 363.97 74.93 372.46 70.45 C 375.48 68.82 378.73 67.47 381.55 65.51 C 383.51 64.14 383.71 60.74 384.33 58.62 C 377.34 60.77 372.01 65.11 365.95 68.93 C 361.76 71.83 357.23 69.68 352.60 69.20 C 352.53 65.88 351.76 62.01 352.74 58.79 C 355.08 56.38 358.83 55.21 361.81 53.74 C 367.40 51.35 372.60 48.63 377.61 45.18 C 375.43 41.07 372.54 36.62 371.66 32.02 C 370.89 28.44 373.59 26.10 376.22 24.27 C 379.24 22.25 383.36 21.86 386.72 23.18 Z M 391.01 94.40 C 393.08 98.78 395.28 103.09 397.29 107.49 C 402.82 105.83 407.94 103.84 413.08 101.21 C 411.46 96.46 410.06 91.66 404.94 89.62 C 399.93 88.23 395.20 92.16 391.01 94.40 Z" id="p1" />
<path d="M 643.65 36.15 C 649.00 38.24 653.59 42.06 659.09 43.98 C 669.97 47.86 681.11 47.75 691.80 52.64 C 688.21 68.53 676.92 78.18 669.68 92.79 C 658.00 88.20 645.60 84.34 634.58 78.36 C 633.04 77.34 631.33 76.89 630.95 74.85 C 629.72 69.89 632.07 63.92 633.19 59.04 C 634.99 52.78 634.53 46.44 635.94 40.13 C 636.29 36.85 640.85 34.84 643.65 36.15 Z M 648.53 70.55 C 651.62 71.18 654.76 72.01 657.91 72.22 C 662.06 70.14 664.71 64.75 667.33 61.06 C 661.99 57.85 656.33 56.07 650.04 56.56 C 648.81 57.36 648.95 59.64 648.74 60.95 C 648.57 64.15 648.61 67.35 648.53 70.55 Z" id="p2" />
<path d="M 714.51 44.21 C 719.74 44.54 726.49 45.88 730.18 49.89 C 732.23 51.97 731.95 54.38 731.30 56.98 C 728.25 68.52 722.12 79.59 715.39 89.38 C 714.53 90.75 713.37 92.27 713.08 93.88 C 714.65 97.39 717.29 100.44 719.24 103.76 C 723.02 109.60 725.38 116.12 729.00 122.03 C 734.69 131.51 742.61 139.70 751.59 146.10 C 751.25 147.68 750.90 149.25 750.55 150.83 C 740.68 152.23 729.86 151.59 721.62 145.40 C 715.78 140.90 715.03 133.02 712.18 126.70 C 708.67 119.07 704.93 111.54 701.41 103.91 C 689.54 105.98 681.91 114.70 670.03 116.80 C 661.07 119.02 653.04 115.33 645.80 110.39 C 654.89 103.83 664.88 101.77 675.26 98.26 C 681.92 96.16 688.05 91.77 693.56 87.56 C 702.43 80.79 710.50 70.58 712.14 59.27 C 713.02 54.30 713.10 49.06 714.51 44.21 Z" id="p3" />
<path d="M 306.30 51.99 C 309.80 50.40 312.53 52.82 315.12 54.87 C 318.21 57.66 321.97 61.06 323.30 65.10 C 323.81 66.34 322.74 68.00 322.01 68.99 C 319.33 71.96 314.18 72.21 310.51 71.51 C 305.92 69.96 301.15 65.69 300.49 60.69 C 299.86 56.63 302.95 53.62 306.30 51.99 Z" id="p4" />
<path d="M 650.04 56.56 C 656.33 56.07 661.99 57.85 667.33 61.06 C 664.71 64.75 662.06 70.14 657.91 72.22 C 654.76 72.01 651.62 71.18 648.53 70.55 C 648.61 67.35 648.57 64.15 648.74 60.95 C 648.95 59.64 648.81 57.36 650.04 56.56 Z" id="p5" />
<path d="M 311.14 77.06 C 314.23 75.97 318.00 76.36 321.24 76.47 C 321.02 80.53 322.14 84.88 319.14 88.14 C 316.13 91.65 312.16 95.25 307.65 96.60 C 304.17 97.30 300.07 95.09 296.77 94.06 C 296.90 91.05 297.05 88.04 297.16 85.02 C 301.72 82.04 305.90 78.79 311.14 77.06 Z" id="p6" />
<path d="M 404.94 89.62 C 410.06 91.66 411.46 96.46 413.08 101.21 C 407.94 103.84 402.82 105.83 397.29 107.49 C 395.28 103.09 393.08 98.78 391.01 94.40 C 395.20 92.16 399.93 88.23 404.94 89.62 Z" id="p7" />
<path d="M 344.41 100.28 C 345.07 101.75 345.82 103.28 346.17 104.85 C 344.52 108.84 341.14 112.62 341.29 117.05 C 341.12 122.92 341.92 130.94 339.66 136.38 C 336.36 137.45 332.87 137.98 329.50 138.78 C 327.50 133.60 326.29 128.00 323.88 123.02 C 320.99 119.32 317.04 116.40 313.78 112.99 C 321.46 104.28 333.35 101.58 344.41 100.28 Z" id="p8" />
<path d="M 218.12 128.34 C 221.21 127.92 224.46 128.22 227.57 128.34 C 227.49 131.04 228.27 134.68 227.08 137.13 C 224.41 140.33 220.39 142.56 217.18 145.21 C 210.64 150.24 206.04 158.55 201.20 165.20 C 196.33 172.31 190.18 178.25 185.01 185.13 C 187.64 185.98 190.27 186.83 192.89 187.70 C 195.85 183.07 198.94 178.65 202.32 174.33 C 206.64 168.74 210.23 162.21 215.17 157.16 C 217.38 154.83 221.26 155.50 222.90 158.13 C 226.19 162.66 228.44 167.48 232.79 171.21 C 240.61 178.81 250.68 183.22 258.00 191.00 C 262.00 194.76 262.61 201.23 261.30 206.28 C 259.59 211.14 254.06 211.55 249.79 212.69 C 247.02 206.84 244.07 201.14 240.65 195.64 C 233.97 201.10 228.13 207.29 224.25 215.08 C 226.29 220.71 229.67 226.23 230.78 232.11 C 230.79 235.62 228.58 239.31 227.34 242.56 C 224.72 241.79 220.10 242.05 218.60 239.38 C 214.20 232.95 213.00 225.35 207.89 219.12 C 200.98 210.43 194.28 202.20 182.35 201.21 C 182.76 208.13 183.88 215.02 184.35 221.95 C 184.77 230.06 183.90 239.58 179.69 246.71 C 176.66 251.49 171.45 252.51 166.15 252.55 C 165.40 245.74 167.44 239.74 169.03 233.27 C 171.06 224.34 169.02 216.54 167.28 207.84 C 164.53 210.41 161.83 213.66 158.50 215.44 C 155.82 216.05 152.83 215.60 150.11 215.52 C 151.97 203.75 158.31 195.35 163.52 185.04 C 160.83 183.25 157.94 181.65 155.42 179.62 C 153.69 178.07 152.06 176.60 152.46 174.04 C 153.35 168.80 158.73 165.57 162.63 162.60 C 166.26 165.94 169.55 169.81 173.51 172.77 C 175.16 174.23 176.69 173.20 178.38 172.42 C 181.36 170.57 183.33 166.89 184.98 163.89 C 191.08 152.04 199.73 141.47 210.03 133.02 C 212.40 131.09 214.99 128.76 218.12 128.34 Z M 217.17 199.64 C 220.95 197.77 225.64 195.56 227.79 191.72 C 228.29 188.25 224.46 185.04 222.56 182.50 C 219.82 188.03 218.21 193.56 217.17 199.64 Z" id="p9" />
<path d="M 228.58 150.88 C 228.87 154.37 229.14 157.86 229.33 161.36 C 227.88 160.26 226.44 159.14 225.00 158.01 C 226.21 155.64 227.40 153.26 228.58 150.88 Z" id="p10" />
<path d="M 869.46 151.34 C 871.03 151.12 871.86 152.08 872.98 152.98 C 879.43 158.63 883.39 166.28 889.88 171.95 C 893.08 169.29 896.54 165.77 900.50 164.34 C 903.65 163.12 907.10 164.56 909.86 166.11 C 912.07 167.57 914.45 169.72 912.79 172.56 C 909.86 177.38 904.93 180.59 902.55 186.09 C 903.64 189.81 906.37 193.21 908.81 196.18 C 915.66 204.54 924.43 210.87 929.70 220.33 C 932.01 223.74 930.17 228.90 927.31 231.36 C 922.16 233.16 915.66 232.46 912.35 227.66 C 908.09 221.63 906.41 214.04 902.16 207.89 C 893.02 194.58 881.70 182.89 868.80 173.18 C 865.74 171.02 863.73 167.99 863.86 164.14 C 864.50 159.52 866.45 154.92 869.46 151.34 Z" id="p11" />
<path d="M 830.57 155.09 C 839.86 159.79 842.30 168.50 849.88 174.94 C 853.82 174.21 857.55 172.85 861.29 171.46 C 862.44 173.91 863.83 176.41 864.51 179.03 C 864.30 183.26 862.70 187.49 861.75 191.60 C 868.06 191.68 874.36 191.33 880.63 190.63 C 880.34 196.68 879.14 202.60 879.14 208.68 C 883.87 207.11 888.66 205.72 893.39 204.16 C 894.22 206.70 895.37 209.34 895.64 212.01 C 894.81 215.45 892.63 218.70 891.05 221.85 C 896.31 220.78 901.34 220.12 906.72 220.44 C 907.12 225.98 905.35 231.23 905.34 236.64 C 909.05 242.02 914.64 245.47 917.20 252.12 C 917.31 254.73 916.19 257.46 915.56 259.98 C 906.19 256.25 897.47 251.83 890.84 243.99 C 885.90 244.39 880.99 244.70 876.10 245.53 C 871.72 239.62 866.96 234.00 862.57 228.10 C 865.88 223.63 868.81 218.95 870.80 213.73 C 865.64 214.61 861.21 217.60 856.23 218.75 C 851.63 215.80 847.20 212.46 842.83 209.17 C 839.55 206.51 836.04 202.96 834.75 198.85 C 834.09 194.80 837.78 191.02 840.49 188.48 C 841.56 187.27 843.60 185.95 843.65 184.21 C 839.39 177.33 830.46 173.72 827.43 166.47 C 826.11 163.01 829.17 158.23 830.57 155.09 Z M 850.53 195.64 C 850.36 198.18 850.26 200.73 850.19 203.27 C 852.72 203.51 855.26 203.74 857.80 203.90 C 855.75 200.68 853.41 198.11 850.53 195.64 Z M 881.70 226.21 C 880.34 226.81 877.87 226.92 878.33 228.98 C 878.05 231.25 880.45 232.40 882.12 231.04 C 883.61 230.12 882.29 227.36 881.70 226.21 Z" id="p12" />
<path d="M 795.39 182.19 C 801.16 182.28 804.99 185.41 809.64 188.31 C 815.47 192.23 821.73 193.17 827.09 197.91 C 829.89 200.22 831.29 203.23 832.85 206.40 C 828.27 207.74 823.78 208.94 818.96 208.81 C 814.31 208.94 810.03 206.96 805.71 205.39 C 802.09 203.95 798.38 202.01 796.80 198.21 C 794.85 193.31 795.15 187.38 795.39 182.19 Z" id="p13" />
<path d="M 222.56 182.50 C 224.46 185.04 228.29 188.25 227.79 191.72 C 225.64 195.56 220.95 197.77 217.17 199.64 C 218.21 193.56 219.82 188.03 222.56 182.50 Z" id="p14" />
<path d="M 694.16 190.35 C 697.97 189.32 701.76 188.71 705.41 190.61 C 710.38 193.08 714.99 196.37 719.60 199.44 C 728.32 205.32 737.77 210.61 746.12 216.98 C 767.91 234.46 788.25 253.42 805.26 275.68 C 838.64 314.80 861.63 362.74 871.44 413.20 C 873.80 429.06 876.88 444.98 878.02 460.97 C 878.61 467.60 878.34 474.34 878.35 481.00 C 878.22 489.03 878.60 496.99 877.78 505.00 C 877.40 523.09 875.18 541.22 871.03 558.84 C 865.24 590.09 854.03 620.38 839.09 648.39 C 834.62 657.30 831.57 666.11 825.88 673.83 C 820.94 680.75 816.54 687.94 813.38 695.86 C 826.85 694.47 838.20 687.01 851.29 687.32 C 848.02 695.79 842.12 701.55 836.23 708.18 C 828.26 717.56 818.22 725.78 808.98 733.98 C 805.55 737.02 802.18 739.97 798.30 742.44 C 783.05 752.06 768.98 762.05 752.55 769.71 C 737.59 776.65 721.13 781.47 705.39 786.38 C 689.96 791.13 674.95 792.12 659.25 795.19 C 652.82 796.33 646.43 795.97 640.01 794.96 C 646.35 787.67 654.29 784.12 662.32 779.16 C 669.14 775.02 674.71 769.89 680.98 765.02 C 690.80 757.37 700.50 749.07 708.76 739.73 C 737.46 709.05 759.07 671.11 773.65 631.85 C 774.42 629.37 776.28 628.99 778.34 627.83 C 779.03 631.87 779.51 635.89 779.49 640.00 C 779.61 652.87 779.82 666.16 782.26 678.83 C 802.10 650.90 812.52 619.58 822.11 587.05 C 829.60 562.66 831.12 536.46 833.13 511.02 C 833.80 503.55 832.55 496.45 832.43 488.97 C 831.63 478.05 829.96 467.18 828.35 456.35 C 824.46 432.62 816.86 409.42 808.13 387.06 C 803.59 375.42 796.86 364.28 790.49 353.55 C 787.43 348.57 784.62 343.40 781.31 338.59 C 767.98 319.88 753.13 302.36 736.39 286.59 C 718.94 270.56 699.59 256.50 678.87 245.00 C 670.63 240.37 662.39 235.00 653.84 231.07 C 642.93 226.00 631.54 221.95 620.43 217.30 C 620.37 215.75 620.30 214.21 620.24 212.66 C 635.85 207.38 652.03 203.88 667.76 198.90 C 676.57 196.14 685.27 192.86 694.16 190.35 Z" id="p15" />
<path d="M 418.07 195.01 C 411.33 202.32 403.06 205.96 394.63 210.86 C 389.82 213.61 385.72 217.04 381.38 220.43 C 372.04 227.78 362.68 234.83 354.37 243.36 C 336.97 260.17 321.85 279.43 309.25 300.07 C 300.44 315.24 292.08 330.51 285.58 346.84 C 284.08 350.76 282.36 354.58 280.71 358.44 C 279.52 358.50 278.32 358.57 277.13 358.63 C 275.27 342.39 278.14 325.56 274.29 308.80 C 268.56 315.14 264.90 322.31 260.63 329.66 C 247.90 353.02 238.90 379.03 231.24 404.43 C 225.28 424.49 223.39 444.33 221.24 465.01 C 220.15 472.38 220.35 479.56 220.35 486.99 C 220.22 501.39 222.24 515.85 224.23 530.09 C 227.55 553.63 234.37 575.84 242.60 598.07 C 246.69 609.17 252.04 619.70 258.06 629.87 C 262.36 637.14 266.00 644.28 270.80 651.07 C 286.58 673.66 304.50 694.57 325.43 712.56 C 333.32 719.63 341.69 725.38 350.22 731.73 C 360.70 739.43 372.17 745.10 383.11 752.04 C 393.76 758.75 405.86 763.68 417.52 768.44 C 420.68 769.79 424.26 770.85 427.06 772.86 C 427.68 774.19 427.99 775.67 428.40 777.07 C 415.20 781.49 401.22 784.41 387.89 788.06 C 376.52 791.16 365.42 795.27 354.03 798.22 C 351.29 798.80 348.20 799.85 345.49 798.86 C 340.84 797.41 336.58 794.14 332.54 791.49 C 322.74 784.57 312.49 778.34 302.99 771.10 C 292.19 762.61 282.08 753.35 272.47 743.53 C 259.73 731.36 249.02 717.07 237.94 703.13 C 232.14 695.95 227.32 688.18 222.41 680.38 C 211.68 663.45 202.62 645.44 195.49 626.71 C 188.22 606.38 182.24 585.61 179.51 564.13 C 178.19 553.78 176.33 543.45 175.53 533.05 C 174.84 517.39 175.35 501.67 175.52 486.00 C 176.36 466.33 178.50 446.91 183.45 427.82 C 186.97 410.60 192.03 393.82 198.40 377.45 C 202.97 366.10 207.83 354.47 213.91 343.85 C 218.31 336.09 221.73 327.82 226.08 320.06 C 231.68 310.40 239.56 301.96 243.10 291.19 C 229.83 291.68 218.87 299.19 205.13 298.68 C 209.95 289.40 217.15 282.70 224.04 275.03 C 233.61 265.24 244.43 256.60 255.04 247.97 C 267.11 239.91 279.44 232.12 292.14 225.08 C 305.54 217.64 319.68 212.53 334.32 208.14 C 346.32 204.41 358.73 200.34 371.13 198.51 C 380.99 197.02 390.89 195.95 400.70 194.18 C 406.58 193.09 412.29 193.79 418.07 195.01 Z" id="p16" />
<path d="M 850.53 195.64 C 853.41 198.11 855.75 200.68 857.80 203.90 C 855.26 203.74 852.72 203.51 850.19 203.27 C 850.26 200.73 850.36 198.18 850.53 195.64 Z" id="p17" />
<path d="M 841.08 220.79 C 844.51 220.74 847.05 222.24 848.78 225.19 C 853.23 232.22 856.88 239.43 856.61 247.98 C 856.88 254.37 855.70 260.49 850.56 264.75 C 847.96 265.50 844.08 265.01 842.62 262.41 C 838.13 255.53 838.48 247.51 838.35 239.65 C 831.30 238.60 823.83 238.25 817.03 236.10 C 811.14 233.79 809.15 228.16 807.96 222.44 C 814.01 221.92 820.00 222.45 826.05 222.52 C 831.01 222.62 836.06 221.21 841.08 220.79 Z" id="p18" />
<path d="M 881.70 226.21 C 882.29 227.36 883.61 230.12 882.12 231.04 C 880.45 232.40 878.05 231.25 878.33 228.98 C 877.87 226.92 880.34 226.81 881.70 226.21 Z" id="p19" />
<path d="M 516.00 236.25 C 522.72 235.88 529.30 235.51 536.01 236.21 C 577.42 237.50 618.33 249.09 654.28 269.67 C 666.18 276.50 677.54 284.28 688.44 292.60 C 703.89 304.90 718.10 319.13 730.47 334.51 C 740.47 347.65 750.12 361.57 757.71 376.25 C 773.58 406.54 783.37 439.86 786.63 473.89 C 787.72 481.81 787.55 489.86 787.65 498.00 C 787.55 505.09 787.72 512.29 786.88 519.33 C 783.55 558.08 771.80 596.42 752.05 629.97 C 740.88 648.77 727.63 666.67 712.07 682.07 C 672.86 722.56 619.72 749.39 563.97 757.44 C 557.37 758.51 550.74 758.58 544.08 758.92 C 558.25 756.18 571.88 752.35 584.78 745.76 C 611.89 732.08 633.90 708.67 645.73 680.69 C 658.16 651.96 659.73 618.80 650.04 589.03 C 647.45 581.15 644.69 573.59 640.53 566.38 C 635.50 557.65 629.94 549.34 623.00 541.99 C 616.44 535.05 609.87 528.50 602.06 522.95 C 582.98 509.35 560.40 500.79 537.01 498.87 C 526.91 497.85 517.02 498.54 507.07 496.98 C 480.42 493.04 455.08 481.08 435.57 462.43 C 414.80 443.04 400.88 416.82 396.16 388.83 C 388.87 347.52 403.06 303.36 433.01 274.01 C 443.85 263.10 456.62 254.23 470.54 247.72 C 476.35 244.98 482.39 243.78 487.73 240.02 C 486.42 239.76 485.10 239.52 483.78 239.31 C 494.42 237.30 505.17 236.19 516.00 236.25 Z M 520.43 326.52 C 504.09 328.68 489.96 341.10 486.11 357.16 C 485.00 362.33 485.10 367.81 485.49 373.06 C 486.33 381.87 491.28 390.35 497.57 396.42 C 508.81 407.48 527.05 410.81 541.47 404.47 C 551.71 400.08 560.04 391.34 563.88 380.88 C 566.42 374.06 566.87 366.41 565.58 359.28 C 562.87 344.41 550.92 331.56 536.32 327.70 C 531.16 326.24 525.75 325.77 520.43 326.52 Z" id="p20" />
<path d="M 483.78 239.31 C 485.10 239.52 486.42 239.76 487.73 240.02 C 482.39 243.78 476.35 244.98 470.54 247.72 C 456.62 254.23 443.85 263.10 433.01 274.01 C 403.06 303.36 388.87 347.52 396.16 388.83 C 400.88 416.82 414.80 443.04 435.57 462.43 C 455.08 481.08 480.42 493.04 507.07 496.98 C 517.02 498.54 526.91 497.85 537.01 498.87 C 560.40 500.79 582.98 509.35 602.06 522.95 C 609.87 528.50 616.44 535.05 623.00 541.99 C 629.94 549.34 635.50 557.65 640.53 566.38 C 644.69 573.59 647.45 581.15 650.04 589.03 C 659.73 618.80 658.16 651.96 645.73 680.69 C 633.90 708.67 611.89 732.08 584.78 745.76 C 571.88 752.35 558.25 756.18 544.08 758.92 C 528.07 761.05 511.21 760.14 495.18 758.37 C 458.94 754.11 423.64 742.47 392.30 723.70 C 337.44 691.44 295.15 638.70 275.97 577.98 C 266.15 547.31 262.10 514.96 263.92 482.81 C 266.34 442.69 277.87 402.80 298.04 367.98 C 313.78 340.49 334.39 315.99 358.85 295.84 C 394.56 266.36 437.99 246.48 483.78 239.31 Z M 517.44 588.68 C 501.46 591.87 488.32 605.05 485.14 621.04 C 481.40 638.14 490.09 656.26 505.17 664.84 C 518.64 672.82 536.23 672.08 548.97 662.98 C 561.89 654.12 568.91 638.11 566.30 622.60 C 563.61 605.58 549.77 591.31 532.72 588.53 C 527.71 587.97 522.44 587.92 517.44 588.68 Z" id="p21" />
<path d="M 864.64 249.79 C 867.64 248.99 871.10 249.58 874.19 249.61 C 876.42 263.27 881.71 276.19 884.67 289.97 C 875.62 290.03 866.80 285.74 862.22 277.78 C 858.88 272.23 859.47 265.26 859.21 258.94 C 858.97 254.86 861.31 251.82 864.64 249.79 Z" id="p22" />
<path d="M 133.04 327.03 C 143.32 331.43 152.43 338.24 159.35 347.06 C 157.45 351.61 156.25 356.35 154.65 361.00 C 153.48 365.46 147.80 367.52 144.28 369.90 C 147.12 373.54 149.68 377.35 152.38 381.09 C 150.90 382.31 149.40 383.70 147.72 384.65 C 142.79 387.25 136.82 386.70 132.13 383.87 C 128.86 381.72 126.68 378.02 127.54 374.03 C 128.89 367.89 131.39 362.09 132.56 355.88 C 137.12 355.21 141.63 354.32 146.13 353.30 C 140.85 348.31 135.46 343.92 128.66 341.14 C 124.71 349.00 121.92 357.29 119.54 365.73 C 117.10 374.55 116.01 384.01 112.24 392.41 C 110.24 397.14 105.46 399.71 101.62 402.79 C 112.81 412.76 122.46 423.18 127.25 437.72 C 128.58 441.96 126.92 446.26 125.94 450.39 C 123.12 450.40 120.30 450.47 117.48 450.55 C 112.36 436.02 106.04 422.12 92.59 413.48 C 85.23 408.66 76.10 410.80 68.88 407.22 C 66.06 405.79 66.70 401.83 67.29 399.31 C 69.16 392.08 71.64 385.04 73.05 377.68 C 67.75 377.48 62.46 377.33 57.15 377.38 C 58.13 384.33 60.19 391.05 61.27 397.96 C 62.24 404.71 59.32 410.49 57.15 416.65 C 54.62 416.63 52.09 416.64 49.56 416.68 C 48.47 410.86 48.89 404.89 47.55 399.15 C 46.55 394.58 42.79 391.47 40.35 387.69 C 40.43 386.12 41.36 384.54 42.00 383.13 C 46.35 374.52 50.32 365.53 52.94 356.22 C 54.60 350.87 55.75 345.22 57.92 340.05 C 58.67 338.44 59.76 336.17 61.53 335.52 C 64.62 334.48 68.34 335.04 71.52 334.38 C 74.91 333.27 77.78 330.18 81.24 329.37 C 83.67 329.26 86.21 330.33 88.56 330.88 C 87.03 337.17 85.00 343.58 79.82 347.86 C 75.23 351.13 69.53 353.06 64.44 355.45 C 63.93 357.59 63.44 359.74 62.97 361.89 C 66.76 362.81 70.56 363.71 74.35 364.67 C 76.21 360.71 77.68 356.53 79.75 352.68 C 85.08 351.99 90.58 353.38 95.99 352.10 C 101.54 350.68 106.86 351.26 112.47 351.74 C 114.82 344.77 115.95 336.93 119.44 330.45 C 122.21 325.49 128.26 325.29 133.04 327.03 Z M 85.58 383.45 C 88.63 377.73 90.00 372.25 90.24 365.77 C 88.33 367.55 86.52 369.10 85.85 371.73 C 84.92 375.46 85.32 379.65 85.58 383.45 Z M 96.27 400.20 C 101.73 393.73 103.82 386.43 106.86 378.70 C 108.64 374.98 106.06 371.57 104.72 368.15 C 99.12 377.71 96.16 389.13 96.27 400.20 Z" id="p23" />
<path d="M 520.43 326.52 C 525.75 325.77 531.16 326.24 536.32 327.70 C 550.92 331.56 562.87 344.41 565.58 359.28 C 566.87 366.41 566.42 374.06 563.88 380.88 C 560.04 391.34 551.71 400.08 541.47 404.47 C 527.05 410.81 508.81 407.48 497.57 396.42 C 491.28 390.35 486.33 381.87 485.49 373.06 C 485.10 367.81 485.00 362.33 486.11 357.16 C 489.96 341.10 504.09 328.68 520.43 326.52 Z" id="p24" />
<path d="M 983.72 328.84 C 985.37 331.17 987.72 333.58 988.58 336.34 C 988.91 340.15 987.64 344.08 987.95 347.88 C 989.01 352.54 992.05 356.92 994.34 361.08 C 992.15 362.67 989.72 365.11 987.01 365.61 C 983.95 364.80 981.22 362.41 978.56 360.72 C 978.47 364.12 978.43 367.52 978.38 370.92 C 969.87 375.14 961.26 378.89 951.90 380.76 C 941.49 382.70 932.23 387.55 921.90 389.36 C 918.88 389.76 915.49 390.22 912.49 389.48 C 909.81 388.49 907.43 386.51 905.06 384.95 C 905.30 377.86 907.01 371.16 908.57 364.28 C 904.79 362.13 901.05 359.91 897.32 357.68 C 901.05 352.35 905.94 348.81 912.47 347.86 C 922.54 346.60 932.42 344.44 942.29 342.15 C 948.82 340.61 955.10 339.67 961.48 337.60 C 969.02 335.15 976.34 331.78 983.72 328.84 Z M 955.56 355.80 C 955.39 357.62 955.27 359.44 955.13 361.27 C 957.63 361.33 960.12 361.40 962.62 361.45 C 961.81 359.11 961.04 356.76 960.30 354.39 C 958.72 354.85 957.13 355.29 955.56 355.80 Z M 936.94 361.34 C 938.29 364.75 940.00 367.96 942.35 370.80 C 942.65 367.53 942.74 364.26 942.74 360.97 C 940.81 361.09 938.87 361.20 936.94 361.34 Z M 918.09 369.90 C 919.67 370.26 921.25 370.62 922.84 370.97 C 922.65 368.66 922.54 366.34 922.54 364.02 C 921.10 364.09 919.64 364.13 918.21 364.28 C 918.08 366.14 918.11 368.03 918.09 369.90 Z" id="p25" />
<path d="M 960.30 354.39 C 961.04 356.76 961.81 359.11 962.62 361.45 C 960.12 361.40 957.63 361.33 955.13 361.27 C 955.27 359.44 955.39 357.62 955.56 355.80 C 957.13 355.29 958.72 354.85 960.30 354.39 Z" id="p26" />
<path d="M 936.94 361.34 C 938.87 361.20 940.81 361.09 942.74 360.97 C 942.74 364.26 942.65 367.53 942.35 370.80 C 940.00 367.96 938.29 364.75 936.94 361.34 Z" id="p27" />
<path d="M 918.21 364.28 C 919.64 364.13 921.10 364.09 922.54 364.02 C 922.54 366.34 922.65 368.66 922.84 370.97 C 921.25 370.62 919.67 370.26 918.09 369.90 C 918.11 368.03 918.08 366.14 918.21 364.28 Z" id="p28" />
<path d="M 90.24 365.77 C 90.00 372.25 88.63 377.73 85.58 383.45 C 85.32 379.65 84.92 375.46 85.85 371.73 C 86.52 369.10 88.33 367.55 90.24 365.77 Z" id="p29" />
<path d="M 104.72 368.15 C 106.06 371.57 108.64 374.98 106.86 378.70 C 103.82 386.43 101.73 393.73 96.27 400.20 C 96.16 389.13 99.12 377.71 104.72 368.15 Z" id="p30" />
<path d="M 1001.98 384.87 C 1005.38 384.33 1008.79 383.89 1011.39 386.64 C 1012.14 390.26 1010.02 394.30 1009.80 398.00 C 1010.53 402.65 1013.16 406.76 1014.37 411.39 C 1015.98 417.53 1018.68 423.67 1019.40 429.96 C 1019.61 433.42 1019.89 436.69 1017.42 439.46 C 1014.70 442.79 1010.61 446.73 1006.00 446.61 C 997.37 446.69 988.54 446.28 980.06 444.66 C 975.09 443.75 971.02 440.82 966.03 439.95 C 962.44 439.30 958.64 438.97 954.99 439.20 C 953.50 440.23 952.34 441.80 951.14 443.13 C 947.81 447.14 944.16 450.92 942.82 456.11 C 940.81 466.74 944.62 475.07 945.91 485.24 C 941.72 483.81 937.82 482.73 935.17 478.87 C 929.90 470.81 926.97 461.35 928.82 451.71 C 930.35 444.49 936.29 437.94 940.69 432.17 C 938.41 426.68 936.49 421.10 934.82 415.39 C 931.43 415.37 928.05 415.35 924.66 415.33 C 926.01 419.76 927.43 424.16 928.64 428.63 C 918.78 425.19 911.14 418.19 905.29 409.71 C 903.51 407.24 904.14 403.39 906.43 401.42 C 908.59 399.09 911.37 398.79 914.32 398.21 C 924.90 396.46 936.51 396.40 946.90 393.78 C 948.57 393.40 950.27 392.93 951.98 392.78 C 957.54 393.85 960.35 402.23 956.31 406.34 C 952.24 410.53 946.63 413.19 942.12 416.96 C 944.69 417.84 947.60 419.56 950.36 419.48 C 954.57 416.16 958.05 412.28 962.98 409.90 C 962.73 406.74 961.93 403.42 962.27 400.27 C 963.57 396.78 967.43 394.14 970.76 392.79 C 980.62 388.70 991.52 386.90 1001.98 384.87 Z M 1000.96 426.54 C 1002.95 426.75 1004.94 426.96 1006.92 427.17 C 1004.92 419.63 1003.18 412.04 1001.28 404.47 C 998.59 404.39 995.87 404.25 993.18 404.35 C 995.23 412.08 999.91 418.37 1000.96 426.54 Z M 980.54 407.49 C 980.35 414.53 981.54 421.74 982.39 428.73 C 984.59 428.61 986.80 428.49 989.01 428.37 C 986.79 421.08 984.61 414.03 980.54 407.49 Z M 963.67 422.30 C 963.61 423.66 963.61 425.03 963.61 426.40 C 965.10 426.41 966.59 426.40 968.08 426.39 C 968.26 425.16 968.44 423.92 968.62 422.69 C 966.97 422.46 965.32 422.35 963.67 422.30 Z" id="p31" />
<path d="M 131.08 389.60 C 138.00 390.28 143.89 395.95 149.18 400.03 C 147.31 401.86 145.54 403.99 143.00 404.90 C 139.41 406.21 135.16 406.43 131.38 406.69 C 133.41 411.64 134.91 416.63 134.54 422.06 C 134.38 426.00 132.93 429.45 131.24 432.94 C 126.34 427.98 123.28 422.01 120.20 415.86 C 119.13 413.80 118.69 411.07 119.93 408.99 C 121.84 405.68 124.26 403.12 125.26 399.30 C 126.54 395.50 126.85 391.32 131.08 389.60 Z" id="p32" />
<path d="M 993.18 404.35 C 995.87 404.25 998.59 404.39 1001.28 404.47 C 1003.18 412.04 1004.92 419.63 1006.92 427.17 C 1004.94 426.96 1002.95 426.75 1000.96 426.54 C 999.91 418.37 995.23 412.08 993.18 404.35 Z" id="p33" />
<path d="M 980.54 407.49 C 984.61 414.03 986.79 421.08 989.01 428.37 C 986.80 428.49 984.59 428.61 982.39 428.73 C 981.54 421.74 980.35 414.53 980.54 407.49 Z" id="p34" />
<path d="M 968.62 422.69 C 968.44 423.92 968.26 425.16 968.08 426.39 C 966.59 426.40 965.10 426.41 963.61 426.40 C 963.61 425.03 963.61 423.66 963.67 422.30 C 965.32 422.35 966.97 422.46 968.62 422.69 Z" id="p35" />
<path d="M 64.44 516.79 C 66.98 518.31 69.95 519.84 71.82 522.18 C 74.09 525.00 75.74 528.40 76.43 531.96 C 76.97 535.58 76.82 539.34 76.86 543.00 C 76.81 550.08 77.08 556.90 75.61 563.84 C 74.54 570.00 72.12 575.50 72.03 581.85 C 81.36 588.96 91.82 592.20 100.14 599.85 C 102.40 602.09 104.86 604.16 105.25 607.50 C 105.74 612.33 103.27 616.76 101.08 620.87 C 95.65 618.12 91.45 614.04 87.19 609.80 C 81.81 604.44 75.31 601.90 68.43 599.03 C 69.19 604.71 71.12 610.30 71.46 616.01 C 71.71 619.79 70.18 622.79 68.55 626.05 C 65.65 625.01 61.15 624.24 59.37 621.53 C 55.77 614.64 56.52 603.65 51.24 597.73 C 47.36 595.25 41.82 595.01 37.37 594.22 C 37.18 591.08 36.12 587.27 37.14 584.27 C 38.80 581.23 42.67 579.44 44.68 576.64 C 43.86 567.87 39.70 559.13 37.40 550.66 C 36.54 547.30 37.82 543.73 38.59 540.44 C 41.75 540.92 44.92 541.38 48.10 541.73 C 52.60 552.46 52.88 563.30 58.93 573.41 C 63.29 564.62 66.01 554.84 64.83 544.97 C 63.92 535.51 62.97 526.27 64.44 516.79 Z" id="p36" />
<path d="M 943.74 519.28 C 948.21 519.71 953.95 523.32 954.83 528.05 C 956.55 534.13 957.37 540.95 960.31 546.61 C 964.79 555.10 970.25 562.97 977.52 569.32 C 979.39 564.84 980.76 560.47 983.29 556.29 C 984.79 553.65 987.33 551.56 989.57 549.55 C 991.02 551.04 992.55 552.52 993.86 554.11 C 999.27 560.66 1000.97 569.84 1006.92 576.06 C 1011.10 580.52 1015.29 584.67 1017.89 590.32 C 1013.09 592.37 1008.53 593.68 1003.36 594.39 C 1007.06 599.16 1012.39 605.05 1011.42 611.57 C 1010.56 613.84 1008.39 615.72 1006.91 617.63 C 1002.38 613.69 998.49 609.18 994.47 604.75 C 992.85 612.96 993.77 621.24 993.87 629.60 C 989.10 630.22 984.42 630.29 979.61 630.03 C 979.03 633.04 978.46 636.05 977.77 639.03 C 969.57 637.94 962.79 634.30 955.01 631.25 C 955.40 637.79 955.31 644.21 954.22 650.68 C 941.63 649.37 929.76 646.18 917.33 644.08 C 913.86 643.49 910.73 642.29 908.49 639.45 C 905.82 636.43 905.91 632.32 906.69 628.60 C 908.92 622.70 914.34 620.13 919.84 617.97 C 920.56 622.68 921.05 627.42 921.59 632.15 C 929.27 633.82 936.78 635.12 944.64 633.70 C 944.29 630.64 943.80 627.59 943.41 624.53 C 938.91 625.16 934.45 625.62 929.91 625.89 C 928.61 623.51 927.25 621.18 925.82 618.88 C 927.95 615.49 930.16 612.17 932.48 608.91 C 929.14 607.12 925.64 605.57 922.42 603.58 C 919.34 602.31 920.97 597.80 920.65 595.11 C 923.63 593.78 926.60 592.42 929.55 591.00 C 927.20 588.63 923.93 586.05 922.72 582.88 C 922.21 580.67 923.54 579.10 925.22 577.88 C 930.12 576.45 936.10 577.89 941.01 578.73 C 944.30 575.29 948.05 572.78 952.21 570.51 C 953.78 573.63 955.24 576.61 955.62 580.14 C 956.64 589.23 953.34 598.70 953.72 608.05 C 953.90 611.32 953.71 614.29 956.31 616.71 C 958.56 619.00 961.28 619.27 964.29 619.71 C 964.75 616.14 965.36 612.65 965.32 609.04 C 965.44 603.42 964.89 597.12 967.16 591.87 C 968.64 588.76 972.13 586.44 974.63 584.16 C 963.50 571.28 952.84 557.41 944.31 542.65 C 939.87 535.94 940.60 526.36 943.74 519.28 Z M 987.00 574.92 C 986.75 575.81 986.52 576.69 986.29 577.59 C 987.51 577.64 988.73 577.68 989.95 577.72 C 989.87 576.58 989.78 575.45 989.69 574.31 C 988.79 574.50 987.89 574.71 987.00 574.92 Z M 935.28 590.06 C 936.70 592.97 938.44 595.93 939.37 599.04 C 939.55 602.20 937.96 605.53 937.16 608.56 C 939.56 609.36 941.96 610.15 944.38 610.92 C 944.22 604.08 943.20 597.31 943.17 590.46 C 940.54 590.26 937.91 590.15 935.28 590.06 Z M 978.43 599.22 C 977.25 602.83 976.10 606.14 976.64 610.02 C 977.09 612.59 978.57 614.33 980.09 616.34 L 980.17 615.31 C 980.88 609.29 980.84 603.31 978.99 597.50 L 978.43 599.22 Z" id="p37" />
<path d="M 118.32 539.22 C 121.30 537.91 125.20 539.61 126.10 542.79 C 130.12 553.57 132.10 565.63 136.76 576.31 C 137.66 578.58 138.98 581.19 138.82 583.67 C 137.96 585.08 136.28 586.03 134.96 586.97 C 129.67 590.39 124.14 593.40 118.90 596.91 C 116.28 598.52 113.35 600.75 110.20 600.92 C 106.69 598.67 105.96 593.22 102.93 590.79 C 99.89 590.56 96.81 590.74 93.77 590.72 C 94.45 579.42 90.43 569.13 91.57 557.91 C 91.85 555.71 92.20 553.50 94.09 552.08 C 98.09 549.01 104.69 549.38 108.92 546.97 C 112.36 544.50 113.99 540.55 118.32 539.22 Z M 108.05 563.07 C 108.38 568.87 109.30 574.58 110.47 580.26 C 114.26 579.28 118.92 578.37 121.23 574.86 C 122.35 570.17 119.66 565.15 117.82 560.94 C 114.48 561.38 111.31 562.26 108.05 563.07 Z" id="p38" />
<path d="M 923.39 549.28 C 932.13 550.18 940.64 556.55 943.34 565.02 C 942.80 569.38 938.58 572.67 934.31 570.97 C 926.99 566.82 921.04 557.97 923.39 549.28 Z" id="p39" />
<path d="M 117.82 560.94 C 119.66 565.15 122.35 570.17 121.23 574.86 C 118.92 578.37 114.26 579.28 110.47 580.26 C 109.30 574.58 108.38 568.87 108.05 563.07 C 111.31 562.26 114.48 561.38 117.82 560.94 Z" id="p40" />
<path d="M 989.69 574.31 C 989.78 575.45 989.87 576.58 989.95 577.72 C 988.73 577.68 987.51 577.64 986.29 577.59 C 986.52 576.69 986.75 575.81 987.00 574.92 C 987.89 574.71 988.79 574.50 989.69 574.31 Z" id="p41" />
<path d="M 517.44 588.68 C 522.44 587.92 527.71 587.97 532.72 588.53 C 549.77 591.31 563.61 605.58 566.30 622.60 C 568.91 638.11 561.89 654.12 548.97 662.98 C 536.23 672.08 518.64 672.82 505.17 664.84 C 490.09 656.26 481.40 638.14 485.14 621.04 C 488.32 605.05 501.46 591.87 517.44 588.68 Z" id="p42" />
<path d="M 935.28 590.06 C 937.91 590.15 940.54 590.26 943.17 590.46 C 943.20 597.31 944.22 604.08 944.38 610.92 C 941.96 610.15 939.56 609.36 937.16 608.56 C 937.96 605.53 939.55 602.20 939.37 599.04 C 938.44 595.93 936.70 592.97 935.28 590.06 Z" id="p43" />
<path d="M 978.99 597.50 C 980.84 603.31 980.88 609.29 980.17 615.31 C 980.52 609.82 979.60 604.55 978.43 599.22 L 978.99 597.50 Z" id="p44" />
<path d="M 978.43 599.22 C 979.60 604.55 980.52 609.82 980.17 615.31 L 980.09 616.34 C 978.57 614.33 977.09 612.59 976.64 610.02 C 976.10 606.14 977.25 602.83 978.43 599.22 Z" id="p45" />
<path d="M 116.68 627.54 C 120.53 628.05 124.19 629.67 128.02 630.11 C 132.15 629.97 136.37 627.56 140.22 626.19 C 141.41 628.26 142.98 630.58 143.36 632.97 C 143.79 637.86 141.34 642.56 137.28 645.26 C 132.06 648.95 128.21 653.72 124.31 658.71 C 118.93 653.11 116.08 646.40 112.33 639.74 C 110.24 635.95 108.64 631.97 107.31 627.86 C 110.47 627.47 113.49 627.09 116.68 627.54 Z" id="p46" />
<path d="M 77.49 635.17 C 80.24 636.52 82.25 639.01 83.17 641.92 C 84.88 647.33 84.72 653.42 83.13 658.84 C 80.68 664.74 75.68 667.64 70.03 669.96 C 67.86 666.14 65.88 662.57 66.10 658.01 C 66.05 653.73 68.04 650.58 70.05 647.00 C 72.44 643.03 74.64 638.84 77.49 635.17 Z" id="p47" />
<path d="M 94.67 635.03 C 99.02 641.12 104.90 647.92 106.61 655.32 C 107.88 660.82 102.82 666.55 97.20 665.26 C 88.79 658.86 86.25 645.51 90.06 635.97 C 91.54 635.48 93.13 635.25 94.67 635.03 Z" id="p48" />
<path d="M 169.05 702.74 C 173.09 704.44 177.34 705.22 180.01 708.96 C 183.40 713.81 186.36 719.16 188.26 724.77 C 190.22 730.40 190.32 737.06 187.34 742.36 C 185.54 745.41 181.06 746.83 178.08 748.50 C 170.56 734.12 170.32 718.65 169.05 702.74 Z" id="p49" />
<path d="M 143.55 716.01 C 147.49 717.28 151.20 718.88 154.32 721.67 C 160.44 726.99 165.03 734.66 169.78 741.22 C 175.23 749.01 175.17 757.99 179.98 766.04 C 181.61 768.78 183.79 770.76 186.00 773.00 C 192.17 779.12 197.11 785.58 204.03 790.97 C 211.61 797.03 220.60 801.67 227.62 808.34 C 232.12 813.18 227.61 821.64 221.09 820.73 C 211.29 819.61 202.63 811.22 195.77 804.71 C 190.83 808.08 186.50 812.17 181.76 815.75 C 179.55 815.76 177.54 813.29 176.30 811.68 C 173.64 808.40 173.39 802.66 176.79 799.80 C 179.22 797.77 182.54 796.64 185.40 795.33 C 185.35 793.63 185.28 791.93 185.22 790.23 C 179.58 792.34 174.52 795.44 169.26 798.28 C 165.82 800.36 162.80 798.67 159.20 798.10 C 164.81 804.51 170.80 811.36 174.44 819.10 C 175.34 822.61 170.11 826.17 168.09 828.60 C 162.51 822.60 157.07 816.45 151.49 810.46 C 149.91 808.46 148.07 809.75 146.08 810.18 C 142.39 811.43 138.02 812.50 134.20 811.28 C 132.49 809.08 130.99 806.51 129.97 803.91 C 131.95 800.30 136.05 797.62 139.00 794.76 C 134.80 790.19 129.08 785.66 126.48 779.98 C 126.55 775.26 128.41 770.40 129.66 765.86 C 132.71 767.07 136.66 767.42 138.22 770.73 C 141.48 776.46 144.56 782.93 149.50 787.53 C 152.41 790.37 157.54 790.82 161.36 791.54 C 156.75 787.35 152.23 783.46 149.15 777.92 C 155.35 774.04 162.10 771.60 168.70 768.55 C 167.29 766.31 165.88 764.08 164.46 761.85 C 159.98 764.61 155.32 770.23 149.98 770.72 C 145.24 771.37 143.17 766.22 140.60 763.24 C 143.58 760.28 146.63 757.52 149.93 754.91 C 151.92 753.14 154.46 751.30 155.72 748.91 C 152.48 737.74 145.65 727.81 143.55 716.01 Z M 164.31 787.33 C 167.91 785.33 169.76 783.45 171.64 779.78 C 168.19 781.59 166.16 783.95 164.31 787.33 Z" id="p50" />
<path d="M 850.72 738.12 C 855.33 745.79 858.59 753.42 865.22 759.77 C 871.29 765.65 878.34 769.01 885.15 773.99 C 885.29 775.41 885.42 776.82 885.55 778.24 C 880.68 783.32 874.77 786.94 870.27 792.27 C 864.35 798.93 859.65 807.15 854.31 814.31 C 853.27 815.54 852.64 816.78 850.82 816.76 C 846.72 817.18 843.72 814.71 840.86 812.15 C 835.28 806.75 830.21 800.75 824.93 795.06 C 822.79 792.84 820.68 790.50 817.93 789.03 C 813.41 786.61 808.11 785.25 804.05 781.98 C 801.84 780.12 800.07 777.93 800.11 774.90 C 799.93 771.17 802.98 768.67 805.80 766.82 C 811.07 763.45 818.02 764.77 823.96 764.91 C 822.97 768.36 821.97 771.80 820.98 775.25 C 824.95 777.62 828.88 780.00 833.05 782.02 C 836.48 776.57 840.26 771.09 843.39 765.42 C 844.13 763.97 844.93 762.73 844.73 761.03 C 844.32 756.65 841.88 752.40 841.58 747.99 C 841.74 744.76 842.89 741.53 843.70 738.42 C 846.05 738.27 848.37 738.10 850.72 738.12 Z M 841.06 792.18 C 842.52 791.37 844.24 790.60 845.43 789.41 C 846.77 787.87 847.44 785.60 848.11 783.71 C 844.62 786.07 842.80 788.36 841.06 792.18 Z M 847.78 794.79 C 849.22 795.84 850.67 796.90 852.11 797.96 C 853.52 795.93 854.93 793.89 856.29 791.82 C 853.44 792.76 850.61 793.77 847.78 794.79 Z" id="p51" />
<path d="M 206.14 739.97 C 207.05 744.75 208.20 749.44 208.74 754.28 C 211.52 755.34 215.55 756.11 217.43 758.54 C 219.09 765.00 214.41 771.17 211.73 776.75 C 215.58 776.59 219.24 776.24 223.04 776.33 C 229.44 776.35 236.16 778.84 241.08 782.93 C 245.55 786.73 247.53 791.77 249.94 796.94 C 239.34 794.43 228.96 791.92 217.98 791.92 C 215.56 791.67 212.42 792.45 211.11 789.81 C 209.50 786.82 209.36 782.89 208.64 779.58 C 204.24 778.62 199.87 777.53 195.53 776.34 C 196.17 772.26 196.69 768.16 197.36 764.08 C 193.13 762.17 188.15 760.63 185.67 756.36 C 184.29 752.11 186.81 747.67 190.00 744.97 C 194.57 741.29 200.32 739.74 206.14 739.97 Z" id="p52" />
<path d="M 892.70 763.60 C 896.69 766.22 899.91 769.63 902.97 773.26 C 907.53 769.39 911.65 767.59 917.45 766.29 C 917.89 770.53 919.22 774.08 917.10 778.12 C 907.83 797.50 890.09 812.81 879.83 830.77 C 881.38 832.59 882.87 834.45 884.33 836.35 C 895.94 822.82 903.37 805.91 916.79 793.77 C 920.92 789.82 926.14 789.27 931.51 788.19 C 931.19 792.84 931.35 797.46 928.33 801.31 C 920.56 811.91 910.86 821.30 902.21 831.21 C 896.83 837.44 893.24 844.41 886.99 850.00 C 883.52 853.38 879.26 855.11 874.74 856.62 C 872.20 852.71 869.73 848.75 867.14 844.87 C 863.89 848.05 860.74 851.31 857.61 854.62 C 855.43 856.76 852.93 859.32 850.03 860.40 C 843.26 858.65 840.62 852.03 840.01 845.68 C 847.23 843.57 853.87 842.49 858.78 836.19 C 857.08 831.66 854.56 827.67 851.81 823.72 C 855.73 818.16 861.28 814.69 865.94 809.93 C 874.36 799.61 882.73 788.36 888.17 776.14 C 890.03 772.07 891.23 767.81 892.70 763.60 Z" id="p53" />
<path d="M 171.64 779.78 C 169.76 783.45 167.91 785.33 164.31 787.33 C 166.16 783.95 168.19 781.59 171.64 779.78 Z" id="p54" />
<path d="M 848.11 783.71 C 847.44 785.60 846.77 787.87 845.43 789.41 C 844.24 790.60 842.52 791.37 841.06 792.18 C 842.80 788.36 844.62 786.07 848.11 783.71 Z" id="p55" />
<path d="M 856.29 791.82 C 854.93 793.89 853.52 795.93 852.11 797.96 C 850.67 796.90 849.22 795.84 847.78 794.79 C 850.61 793.77 853.44 792.76 856.29 791.82 Z" id="p56" />
<path d="M 313.88 845.72 C 321.15 849.44 327.07 855.67 331.69 862.30 C 338.01 871.41 342.60 882.37 347.03 892.51 C 359.55 888.75 372.97 880.54 386.09 881.44 C 390.12 880.97 391.73 885.63 393.81 888.23 C 384.14 894.15 373.21 895.80 363.62 901.66 C 357.32 905.39 350.80 909.46 345.60 914.65 C 339.94 920.75 340.01 929.21 337.78 936.75 C 336.56 943.15 327.26 945.32 322.68 941.29 C 319.83 938.25 320.19 932.86 320.54 929.01 C 321.87 921.24 327.83 913.93 332.69 907.94 C 329.92 897.80 326.59 887.82 322.84 878.00 C 321.78 875.28 320.47 872.67 318.68 870.33 C 314.83 865.07 309.01 861.34 304.49 856.49 C 302.69 854.52 302.14 851.28 301.28 848.81 C 305.44 846.79 308.99 844.04 313.88 845.72 Z" id="p57" />
<path d="M 741.03 852.54 C 742.49 864.95 747.11 877.16 750.92 889.01 C 754.18 899.39 760.02 907.36 765.26 916.70 C 766.57 919.24 768.03 921.98 767.52 924.94 C 767.08 926.38 765.38 927.37 764.26 928.30 C 757.82 932.84 751.68 937.94 745.75 943.14 C 736.55 933.28 733.36 920.98 724.84 910.15 C 721.85 906.32 718.00 902.79 716.93 897.86 C 715.95 893.96 718.40 890.51 721.68 888.68 C 725.83 886.38 731.48 886.26 736.11 885.38 C 734.43 879.52 731.53 874.13 729.82 868.30 C 728.66 864.03 728.61 858.22 731.49 854.58 C 733.60 852.33 738.17 852.67 741.03 852.54 Z M 734.30 898.11 C 736.25 901.19 738.25 904.23 740.25 907.28 C 741.24 905.01 742.71 902.53 742.46 900.00 C 742.19 898.05 741.02 896.18 740.20 894.41 C 738.22 895.63 736.26 896.87 734.30 898.11 Z M 744.78 923.51 C 747.35 923.60 749.91 923.56 752.48 923.47 C 752.84 921.60 753.21 919.73 753.53 917.86 C 749.06 918.52 747.42 920.05 744.78 923.51 Z" id="p58" />
<path d="M 702.12 853.08 C 702.74 856.10 703.57 858.84 703.65 861.94 C 703.81 866.41 702.61 870.55 702.51 874.99 C 702.26 883.78 702.74 892.62 702.77 901.41 C 699.55 902.44 695.52 904.83 692.12 904.20 C 688.55 903.32 687.97 900.36 687.46 897.18 C 686.72 890.47 687.64 883.61 687.40 876.85 C 683.95 875.99 680.41 875.25 677.09 873.96 C 675.38 873.45 674.83 871.14 674.02 869.71 C 682.46 862.59 690.79 854.84 702.12 853.08 Z" id="p59" />
<path d="M 683.71 883.47 C 683.70 888.05 683.23 892.52 682.60 897.04 C 682.50 899.33 681.84 901.47 683.54 903.34 C 686.18 906.68 689.27 909.73 692.39 912.63 C 696.12 916.15 701.83 916.20 705.98 919.04 C 708.24 921.09 709.41 924.54 710.61 927.28 C 713.82 935.74 717.51 943.98 720.64 952.47 C 716.83 954.16 712.91 955.56 708.99 956.98 C 700.53 960.02 694.62 966.58 685.88 968.84 C 682.41 969.68 678.74 970.55 675.15 970.41 C 672.34 970.27 670.07 968.83 668.52 966.50 C 663.85 959.60 661.47 950.70 659.42 942.70 C 658.86 939.72 657.78 935.23 659.38 932.49 C 663.54 927.93 669.90 925.06 675.06 921.69 C 671.78 921.54 668.36 921.75 665.14 921.11 C 661.19 918.83 659.89 911.68 655.38 909.79 C 650.92 908.36 646.61 908.44 641.97 908.43 C 631.20 908.31 620.32 911.88 610.06 914.63 C 609.40 913.06 608.73 911.50 608.07 909.93 C 617.69 901.64 628.41 893.03 640.51 888.64 C 650.03 886.27 659.54 892.77 668.38 895.72 C 671.08 891.91 673.39 887.83 676.12 884.05 C 677.64 881.63 681.39 883.42 683.71 883.47 Z M 674.27 942.80 C 682.79 941.16 690.11 936.45 695.95 930.14 C 688.31 930.87 680.98 934.43 675.11 939.28 C 674.76 940.43 674.47 941.61 674.27 942.80 Z M 678.99 951.26 C 679.63 952.98 680.32 954.69 681.00 956.40 C 688.93 954.46 697.03 951.35 703.64 946.48 C 699.79 945.32 695.89 944.86 691.97 946.00 C 687.52 947.37 683.26 949.41 678.99 951.26 Z" id="p60" />
<path d="M 740.20 894.41 C 741.02 896.18 742.19 898.05 742.46 900.00 C 742.71 902.53 741.24 905.01 740.25 907.28 C 738.25 904.23 736.25 901.19 734.30 898.11 C 736.26 896.87 738.22 895.63 740.20 894.41 Z" id="p61" />
<path d="M 376.62 908.66 C 381.58 907.20 387.72 910.18 392.39 911.81 C 396.08 913.33 400.03 914.56 403.47 916.59 C 405.67 918.12 406.76 920.30 406.68 923.00 C 406.60 930.05 408.14 935.94 407.23 942.88 C 406.49 947.10 404.33 951.28 401.06 954.09 C 399.36 955.55 397.01 956.09 394.99 954.98 C 390.60 952.64 387.04 948.94 382.34 946.85 C 377.10 944.46 371.26 943.53 366.10 941.03 C 362.73 939.23 359.69 936.49 360.34 932.30 C 361.06 927.92 364.85 923.88 367.13 920.14 C 369.78 916.32 372.23 910.67 376.62 908.66 Z M 378.36 927.54 C 378.27 929.67 378.33 931.77 378.36 933.90 C 382.79 934.70 387.29 935.22 391.77 935.60 C 391.87 932.52 392.05 929.45 392.28 926.37 C 387.52 925.95 382.91 925.88 378.36 927.54 Z" id="p62" />
<path d="M 753.53 917.86 C 753.21 919.73 752.84 921.60 752.48 923.47 C 749.91 923.56 747.35 923.60 744.78 923.51 C 747.42 920.05 749.06 918.52 753.53 917.86 Z" id="p63" />
<path d="M 392.28 926.37 C 392.05 929.45 391.87 932.52 391.77 935.60 C 387.29 935.22 382.79 934.70 378.36 933.90 C 378.33 931.77 378.27 929.67 378.36 927.54 C 382.91 925.88 387.52 925.95 392.28 926.37 Z" id="p64" />
<path d="M 695.95 930.14 C 690.11 936.45 682.79 941.16 674.27 942.80 C 674.47 941.61 674.76 940.43 675.11 939.28 C 680.98 934.43 688.31 930.87 695.95 930.14 Z" id="p65" />
<path d="M 703.64 946.48 C 697.03 951.35 688.93 954.46 681.00 956.40 C 680.32 954.69 679.63 952.98 678.99 951.26 C 683.26 949.41 687.52 947.37 691.97 946.00 C 695.89 944.86 699.79 945.32 703.64 946.48 Z" id="p66" />
</defs>
<g stroke-width="10pt">
<use stroke="#ffffff" xlink:href="#p0" />
<use stroke="#000000" xlink:href="#p1" />
<use stroke="#000000" xlink:href="#p2" />
<use stroke="#000000" xlink:href="#p3" />
<use stroke="#000000" xlink:href="#p4" />
<use stroke="#ffffff" xlink:href="#p5" />
<use stroke="#000000" xlink:href="#p6" />
<use stroke="#ffffff" xlink:href="#p7" />
<use stroke="#000000" xlink:href="#p8" />
<use stroke="#000000" xlink:href="#p9" />
<use stroke="#000000" xlink:href="#p10" />
<use stroke="#000000" xlink:href="#p11" />
<use stroke="#000000" xlink:href="#p12" />
<use stroke="#000000" xlink:href="#p13" />
<use stroke="#ffffff" xlink:href="#p14" />
<use stroke="#fa0001" xlink:href="#p15" />
<use stroke="#fdad06" xlink:href="#p16" />
<use stroke="#ffffff" xlink:href="#p17" />
<use stroke="#000000" xlink:href="#p18" />
<use stroke="#ffffff" xlink:href="#p19" />
<use stroke="#fdad06" xlink:href="#p20" />
<use stroke="#fa0001" xlink:href="#p21" />
<use stroke="#000000" xlink:href="#p22" />
<use stroke="#000000" xlink:href="#p23" />
<use stroke="#fa0001" xlink:href="#p24" />
<use stroke="#000000" xlink:href="#p25" />
<use stroke="#ffffff" xlink:href="#p26" />
<use stroke="#ffffff" xlink:href="#p27" />
<use stroke="#ffffff" xlink:href="#p28" />
<use stroke="#ffffff" xlink:href="#p29" />
<use stroke="#ffffff" xlink:href="#p30" />
<use stroke="#000000" xlink:href="#p31" />
<use stroke="#000000" xlink:href="#p32" />
<use stroke="#ffffff" xlink:href="#p33" />
<use stroke="#ffffff" xlink:href="#p34" />
<use stroke="#ffffff" xlink:href="#p35" />
<use stroke="#000000" xlink:href="#p36" />
<use stroke="#000000" xlink:href="#p37" />
<use stroke="#000000" xlink:href="#p38" />
<use stroke="#000000" xlink:href="#p39" />
<use stroke="#ffffff" xlink:href="#p40" />
<use stroke="#ffffff" xlink:href="#p41" />
<use stroke="#fdad06" xlink:href="#p42" />
<use stroke="#ffffff" xlink:href="#p43" />
<use stroke="#ffffff" xlink:href="#p44" />
<use stroke="#ffffff" xlink:href="#p45" />
<use stroke="#000000" xlink:href="#p46" />
<use stroke="#000000" xlink:href="#p47" />
<use stroke="#000000" xlink:href="#p48" />
<use stroke="#000000" xlink:href="#p49" />
<use stroke="#000000" xlink:href="#p50" />
<use stroke="#000000" xlink:href="#p51" />
<use stroke="#000000" xlink:href="#p52" />
<use stroke="#000000" xlink:href="#p53" />
<use stroke="#ffffff" xlink:href="#p54" />
<use stroke="#ffffff" xlink:href="#p55" />
<use stroke="#ffffff" xlink:href="#p56" />
<use stroke="#000000" xlink:href="#p57" />
<use stroke="#000000" xlink:href="#p58" />
<use stroke="#000000" xlink:href="#p59" />
<use stroke="#000000" xlink:href="#p60" />
<use stroke="#ffffff" xlink:href="#p61" />
<use stroke="#000000" xlink:href="#p62" />
<use stroke="#ffffff" xlink:href="#p63" />
<use stroke="#ffffff" xlink:href="#p64" />
<use stroke="#ffffff" xlink:href="#p65" />
<use stroke="#ffffff" xlink:href="#p66" />
</g>
<g>
<use fill="#ffffff" xlink:href="#p0" />
<use fill="#000000" xlink:href="#p1" />
<use fill="#000000" xlink:href="#p2" />
<use fill="#000000" xlink:href="#p3" />
<use fill="#000000" xlink:href="#p4" />
<use fill="#ffffff" xlink:href="#p5" />
<use fill="#000000" xlink:href="#p6" />
<use fill="#ffffff" xlink:href="#p7" />
<use fill="#000000" xlink:href="#p8" />
<use fill="#000000" xlink:href="#p9" />
<use fill="#000000" xlink:href="#p10" />
<use fill="#000000" xlink:href="#p11" />
<use fill="#000000" xlink:href="#p12" />
<use fill="#000000" xlink:href="#p13" />
<use fill="#ffffff" xlink:href="#p14" />
<use fill="#fa0001" xlink:href="#p15" />
<use fill="#fdad06" xlink:href="#p16" />
<use fill="#ffffff" xlink:href="#p17" />
<use fill="#000000" xlink:href="#p18" />
<use fill="#ffffff" xlink:href="#p19" />
<use fill="#fdad06" xlink:href="#p20" />
<use fill="#fa0001" xlink:href="#p21" />
<use fill="#000000" xlink:href="#p22" />
<use fill="#000000" xlink:href="#p23" />
<use fill="#fa0001" xlink:href="#p24" />
<use fill="#000000" xlink:href="#p25" />
<use fill="#ffffff" xlink:href="#p26" />
<use fill="#ffffff" xlink:href="#p27" />
<use fill="#ffffff" xlink:href="#p28" />
<use fill="#ffffff" xlink:href="#p29" />
<use fill="#ffffff" xlink:href="#p30" />
<use fill="#000000" xlink:href="#p31" />
<use fill="#000000" xlink:href="#p32" />
<use fill="#ffffff" xlink:href="#p33" />
<use fill="#ffffff" xlink:href="#p34" />
<use fill="#ffffff" xlink:href="#p35" />
<use fill="#000000" xlink:href="#p36" />
<use fill="#000000" xlink:href="#p37" />
<use fill="#000000" xlink:href="#p38" />
<use fill="#000000" xlink:href="#p39" />
<use fill="#ffffff" xlink:href="#p40" />
<use fill="#ffffff" xlink:href="#p41" />
<use fill="#fdad06" xlink:href="#p42" />
<use fill="#ffffff" xlink:href="#p43" />
<use fill="#ffffff" xlink:href="#p44" />
<use fill="#ffffff" xlink:href="#p45" />
<use fill="#000000" xlink:href="#p46" />
<use fill="#000000" xlink:href="#p47" />
<use fill="#000000" xlink:href="#p48" />
<use fill="#000000" xlink:href="#p49" />
<use fill="#000000" xlink:href="#p50" />
<use fill="#000000" xlink:href="#p51" />
<use fill="#000000" xlink:href="#p52" />
<use fill="#000000" xlink:href="#p53" />
<use fill="#ffffff" xlink:href="#p54" />
<use fill="#ffffff" xlink:href="#p55" />
<use fill="#ffffff" xlink:href="#p56" />
<use fill="#000000" xlink:href="#p57" />
<use fill="#000000" xlink:href="#p58" />
<use fill="#000000" xlink:href="#p59" />
<use fill="#000000" xlink:href="#p60" />
<use fill="#ffffff" xlink:href="#p61" />
<use fill="#000000" xlink:href="#p62" />
<use fill="#ffffff" xlink:href="#p63" />
<use fill="#ffffff" xlink:href="#p64" />
<use fill="#ffffff" xlink:href="#p65" />
<use fill="#ffffff" xlink:href="#p66" />
</g>
</svg>